RobotoFlex-opsz144-wght900-wdth25-YOPQ135.ufo
<glyph name="exclam" format="2">
  <advance width="520"/>
  <unicode hex="0021"/>
  <outline>
    <contour>
      <point x="-42.0" y="265.1428571428571" type="qcurve" smooth="yes"/>
      <point x="-42.0" y="380.0357142857143"/>
      <point x="113.0" y="543.2857142857142"/>
      <point x="256.0" y="543.2857142857142" type="qcurve" smooth="yes"/>
      <point x="405.0" y="543.2857142857142"/>
      <point x="562.0" y="380.0357142857143"/>
      <point x="562.0" y="265.1428571428571" type="qcurve" smooth="yes"/>
      <point x="562.0" y="151.25"/>
      <point x="407.0" y="-12.0"/>
      <point x="260.0" y="-12.0" type="qcurve" smooth="yes"/>
      <point x="113.0" y="-12.0"/>
      <point x="-42.0" y="151.25"/>
    </contour>
    <contour>
      <point x="11.0" y="539.6785714285714" type="line"/>
      <point x="4.0" y="1456.0" type="line"/>
      <point x="516.0" y="1456.0" type="line"/>
      <point x="508.0" y="539.6785714285714" type="line"/>
    </contour>
  </outline>
</glyph>
<glyph name="quotedbl" format="2">
  <advance width="887"/>
  <unicode hex="0022"/>
  <outline>
    <contour>
      <point x="86.0" y="922.0" type="line"/>
      <point x="69.0" y="1284.0" type="line"/>
      <point x="69.0" y="1456.0" type="line"/>
      <point x="417.0" y="1456.0" type="line"/>
      <point x="417.0" y="1284.0" type="line"/>
      <point x="401.0" y="922.0" type="line"/>
    </contour>
    <contour>
      <point x="487.0" y="922.0" type="line"/>
      <point x="470.0" y="1284.0" type="line"/>
      <point x="470.0" y="1456.0" type="line"/>
      <point x="817.0" y="1456.0" type="line"/>
      <point x="817.0" y="1284.0" type="line"/>
      <point x="801.0" y="922.0" type="line"/>
    </contour>
  </outline>
</glyph>
<glyph name="numbersign" format="2">
  <advance width="1119"/>
  <unicode hex="0023"/>
  <outline>
    <contour>
      <point x="76.0" y="-13.0" type="line"/>
      <point x="336.0" y="1469.0" type="line"/>
      <point x="641.0" y="1469.0" type="line"/>
      <point x="383.0" y="-13.0" type="line"/>
    </contour>
    <contour>
      <point x="483.0" y="-13.0" type="line"/>
      <point x="742.0" y="1469.0" type="line"/>
      <point x="1048.0" y="1469.0" type="line"/>
      <point x="789.0" y="-13.0" type="line"/>
    </contour>
    <contour>
      <point x="26.0" y="346.0357142857143" type="line"/>
      <point x="26.0" y="603.0357142857143" type="line"/>
      <point x="1062.0" y="603.0357142857143" type="line"/>
      <point x="1062.0" y="346.0357142857143" type="line"/>
    </contour>
    <contour>
      <point x="61.91071428571425" y="847.0535714285714" type="line"/>
      <point x="61.91071428571425" y="1104.0535714285713" type="line"/>
      <point x="1097.9107142857142" y="1104.0535714285713" type="line"/>
      <point x="1097.9107142857142" y="847.0535714285714" type="line"/>
    </contour>
  </outline>
</glyph>
<glyph name="five" format="2">
  <advance width="1008"/>
  <unicode hex="0035"/>
  <outline>
    <contour>
      <point x="9.0" y="466.85714285714283" type="qcurve" smooth="yes"/>
      <point x="9.0" y="588.8571428571429" type="line"/>
      <point x="477.0" y="588.8571428571429" type="line"/>
      <point x="477.0" y="431.85714285714283" type="line" smooth="yes"/>
      <point x="478.0" y="402.27755102040817"/>
      <point x="483.0" y="381.0"/>
      <point x="495.0" y="381.0" type="qcurve" smooth="yes"/>
      <point x="507.0" y="381.0"/>
      <point x="508.0" y="412.4451038575668"/>
      <point x="508.0" y="499.0" type="qcurve" smooth="yes"/>
      <point x="508.0" y="644.3641114982579"/>
      <point x="499.0" y="658.1964285714286"/>
      <point x="485.0" y="658.1964285714286" type="qcurve" smooth="yes"/>
      <point x="472.0" y="658.1964285714286"/>
      <point x="465.0" y="620.4325837295472"/>
      <point x="465.0" y="578.75" type="qcurve"/>
      <point x="23.0" y="644.1071428571429" type="line"/>
      <point x="92.0" y="1456.0" type="line"/>
      <point x="917.0" y="1456.0" type="line"/>
      <point x="923.0" y="973.4642857142858" type="line"/>
      <point x="499.0" y="973.4642857142858" type="line"/>
      <point x="491.0" y="934.0" type="line"/>
      <point x="540.0" y="966.0101028901929"/>
      <point x="616.0" y="983.0"/>
      <point x="668.0" y="983.0" type="qcurve" smooth="yes"/>
      <point x="808.0" y="983.0"/>
      <point x="1004.0" y="793.0"/>
      <point x="1004.0" y="532.0" type="qcurve" smooth="yes"/>
      <point x="1004.0" y="271.0"/>
      <point x="748.0" y="-20.0"/>
      <point x="501.0" y="-20.0" type="qcurve" smooth="yes"/>
      <point x="254.0" y="-20.0"/>
      <point x="9.0" y="231.51785714285714"/>
    </contour>
  </outline>
</glyph>
<glyph name="seven" format="2">
  <advance width="1008"/>
  <unicode hex="0037"/>
  <outline>
    <contour>
      <point x="76.39285714285714" y="0.0" type="line"/>
      <point x="436.75" y="998.1964285714287" type="line"/>
      <point x="23.0" y="998.1964285714287" type="line"/>
      <point x="23.0" y="1456.0" type="line"/>
      <point x="994.0" y="1456.0" type="line"/>
      <point x="994.0" y="980.8214285714287" type="line"/>
      <point x="685.8035714285714" y="0.0" type="line"/>
    </contour>
  </outline>
</glyph>
<glyph name="less" format="2">
  <advance width="665"/>
  <unicode hex="003C"/>
  <outline>
    <contour>
      <point x="626.1428571428571" y="109.75" type="line"/>
      <point x="33.142857142857196" y="515.8035714285714" type="line"/>
      <point x="33.142857142857196" y="831.8035714285714" type="line"/>
      <point x="626.1428571428571" y="1245.0357142857142" type="line"/>
      <point x="626.1428571428571" y="849.2321428571429" type="line"/>
      <point x="338.17857142857144" y="673.4107142857143" type="line"/>
      <point x="626.1428571428571" y="503.5892857142858" type="line"/>
    </contour>
  </outline>
</glyph>
<glyph name="equal" format="2">
  <advance width="792"/>
  <unicode hex="003D"/>
  <outline>
    <contour>
      <point x="22.857142857142833" y="295.80357142857144" type="line"/>
      <point x="22.857142857142833" y="649.6785714285714" type="line"/>
      <point x="767.8214285714284" y="649.6785714285714" type="line"/>
      <point x="767.8214285714284" y="295.80357142857144" type="line"/>
    </contour>
    <contour>
      <point x="22.857142857142833" y="709.6428571428571" type="line"/>
      <point x="22.857142857142833" y="1063.517857142857" type="line"/>
      <point x="767.8214285714284" y="1063.517857142857" type="line"/>
      <point x="767.8214285714284" y="709.6428571428571" type="line"/>
    </contour>
  </outline>
</glyph>
<glyph name="B" format="2">
  <advance width="1020"/>
  <unicode hex="0042"/>
  <outline>
    <contour>
      <point x="10.0" y="0.0" type="line"/>
      <point x="10.0" y="1456.0" type="line"/>
      <point x="555.0" y="1456.0" type="line" smooth="yes"/>
      <point x="734.0" y="1456.0"/>
      <point x="954.0" y="1265.0"/>
      <point x="955.0" y="1086.0" type="qcurve" smooth="yes"/>
      <point x="956.0" y="941.0"/>
      <point x="850.0" y="798.0"/>
      <point x="794.0" y="769.0" type="qcurve"/>
      <point x="794.0" y="768.0" type="line"/>
      <point x="865.0" y="747.0"/>
      <point x="1016.0" y="594.0"/>
      <point x="1016.0" y="428.0" type="qcurve" smooth="yes"/>
      <point x="1016.0" y="222.0"/>
      <point x="747.0" y="0.0"/>
      <point x="555.0" y="0.0" type="qcurve" smooth="yes"/>
    </contour>
    <contour>
      <point x="478.0" y="396.0357142857143" type="line"/>
      <point x="498.0" y="396.0357142857143" type="line" smooth="yes"/>
      <point x="507.0" y="396.0357142857143"/>
      <point x="518.0" y="406.5892857142857"/>
      <point x="518.0" y="486.51785714285717" type="qcurve" smooth="yes"/>
      <point x="518.0" y="565.8392857142857"/>
      <point x="505.0" y="574.5892857142857"/>
      <point x="495.0" y="574.5892857142857" type="qcurve" smooth="yes"/>
      <point x="478.0" y="574.5892857142857" type="line"/>
    </contour>
    <contour>
      <point x="478.0" y="867.0178571428571" type="line"/>
      <point x="492.0" y="867.0178571428571" type="line" smooth="yes"/>
      <point x="506.0" y="867.0178571428571"/>
      <point x="518.0" y="879.5714285714286"/>
      <point x="518.0" y="946.5" type="qcurve" smooth="yes"/>
      <point x="518.0" y="1026.232142857143"/>
      <point x="506.0" y="1037.9642857142858"/>
      <point x="492.0" y="1037.9642857142858" type="qcurve" smooth="yes"/>
      <point x="478.0" y="1037.9642857142858" type="line"/>
    </contour>
  </outline>
</glyph>
<glyph name="G" format="2">
  <advance width="1050"/>
  <unicode hex="0047"/>
  <outline>
    <contour>
      <point x="6.0" y="614.0" type="qcurve" smooth="yes"/>
      <point x="6.0" y="843.0" type="line" smooth="yes"/>
      <point x="6.0" y="1179.0"/>
      <point x="271.0" y="1485.0"/>
      <point x="534.4464285714286" y="1485.0" type="qcurve" smooth="yes"/>
      <point x="789.0" y="1485.0"/>
      <point x="1043.0" y="1217.6607142857142"/>
      <point x="1043.0" y="978.1071428571429" type="qcurve" smooth="yes"/>
      <point x="1043.0" y="876.1071428571429" type="line"/>
      <point x="546.0" y="876.1071428571429" type="line"/>
      <point x="545.8035714285714" y="1046.107142857143" type="line" smooth="yes"/>
      <point x="534.8392857142857" y="1056.607142857143"/>
      <point x="543.0" y="1056.1964285714287"/>
      <point x="529.8392857142858" y="1056.1964285714287" type="qcurve" smooth="yes"/>
      <point x="525.0" y="1056.1964285714287"/>
      <point x="521.0" y="1053.8143899895724"/>
      <point x="521.0" y="1049.0" type="qcurve" smooth="yes"/>
      <point x="521.0" y="378.0" type="line" smooth="yes"/>
      <point x="521.0" y="369.1856100104275"/>
      <point x="524.0" y="368.80357142857144"/>
      <point x="540.0" y="368.80357142857144" type="qcurve" smooth="yes"/>
      <point x="557.0" y="368.80357142857144"/>
      <point x="561.0" y="376.80357142857144"/>
      <point x="561.0" y="396.80357142857144" type="qcurve"/>
      <point x="561.0" y="490.17857142857144" type="line"/>
      <point x="535.0" y="490.17857142857144" type="line"/>
      <point x="535.0" y="868.1785714285714" type="line"/>
      <point x="1056.0" y="870.1785714285714" type="line"/>
      <point x="1056.0" y="232.0" type="line"/>
      <point x="1015.1964285714284" y="158.19642857142856"/>
      <point x="752.0" y="-28.0"/>
      <point x="538.0" y="-28.0" type="qcurve" smooth="yes"/>
      <point x="291.0" y="-28.0"/>
      <point x="6.0" y="276.0"/>
    </contour>
  </outline>
</glyph>
<glyph name="H" format="2">
  <advance width="1030"/>
  <unicode hex="0048"/>
  <outline>
    <contour>
      <point x="10.0" y="0.0" type="line"/>
      <point x="10.0" y="1456.0" type="line"/>
      <point x="500.0" y="1456.0" type="line"/>
      <point x="500.0" y="1011.8035714285714" type="line"/>
      <point x="530.0" y="1011.8035714285714" type="line"/>
      <point x="530.0" y="1456.0" type="line"/>
      <point x="1020.0" y="1456.0" type="line"/>
      <point x="1020.0" y="0.0" type="line"/>
      <point x="530.0" y="0.0" type="line"/>
      <point x="530.0" y="492.80357142857144" type="line"/>
      <point x="500.0" y="492.80357142857144" type="line"/>
      <point x="500.0" y="0.0" type="line"/>
    </contour>
  </outline>
</glyph>
<glyph name="K" format="2">
  <advance width="1096"/>
  <unicode hex="004B"/>
  <outline>
    <contour>
      <point x="10.0" y="0.0" type="line"/>
      <point x="10.0" y="1456.0" type="line"/>
      <point x="500.0" y="1456.0" type="line"/>
      <point x="500.0" y="1180.3214285714284" type="line"/>
      <point x="587.0714285714286" y="1456.0" type="line"/>
      <point x="1095.7142857142858" y="1456.0" type="line"/>
      <point x="500.0" y="226.7321428571429" type="line"/>
      <point x="500.0" y="0.0" type="line"/>
    </contour>
    <contour>
      <point x="570.0" y="0.0" type="line"/>
      <point x="450.0" y="537.0" type="line"/>
      <point x="771.0" y="1214.0" type="line"/>
      <point x="1106.0" y="0.0" type="line"/>
    </contour>
  </outline>
</glyph>
<glyph name="V" format="2">
  <advance width="1019"/>
  <unicode hex="0056"/>
  <outline>
    <contour>
      <point x="-10.0" y="1456.0" type="line"/>
      <point x="491.0" y="1456.0" type="line"/>
      <point x="501.3571428571429" y="573.75" type="line" smooth="yes"/>
      <point x="502.3571428571429" y="548.75"/>
      <point x="503.75" y="534.7321428571429"/>
      <point x="505.75" y="494.7321428571429" type="qcurve"/>
      <point x="507.75" y="494.7321428571429" type="line"/>
      <point x="508.1607142857142" y="535.5178571428571"/>
      <point x="506.7857142857142" y="544.2321428571429"/>
      <point x="507.5892857142858" y="569.2321428571429" type="qcurve" smooth="yes"/>
      <point x="523.3928571428571" y="1456.0" type="line"/>
      <point x="1029.0" y="1456.0" type="line"/>
      <point x="824.0" y="0.0" type="line"/>
      <point x="199.0" y="0.0" type="line"/>
    </contour>
  </outline>
</glyph>
<glyph name="X" format="2">
  <advance width="1079"/>
  <unicode hex="0058"/>
  <outline>
    <contour>
      <point x="-30.0" y="0.0" type="line"/>
      <point x="374.0" y="955.0" type="line"/>
      <point x="464.0" y="955.0" type="line"/>
      <point x="647.0" y="1456.0" type="line"/>
      <point x="1113.642857142857" y="1456.0" type="line"/>
      <point x="722.6428571428571" y="513.0" type="line"/>
      <point x="631.6428571428571" y="513.0" type="line"/>
      <point x="465.6428571428571" y="0.0" type="line"/>
    </contour>
    <contour>
      <point x="-8.392857142857146" y="1456.0" type="line"/>
      <point x="493.6071428571429" y="1456.0" type="line"/>
      <point x="690.6071428571429" y="915.0" type="line"/>
      <point x="771.5535714285714" y="917.0" type="line"/>
      <point x="1086.125" y="-1.0" type="line"/>
      <point x="584.125" y="-1.0" type="line"/>
      <point x="407.55357142857144" y="577.0" type="line"/>
      <point x="334.6071428571429" y="577.0" type="line"/>
    </contour>
  </outline>
</glyph>
<glyph name="Z" format="2">
  <advance width="916"/>
  <unicode hex="005A"/>
  <outline>
    <contour>
      <point x="4.0" y="0.0" type="line"/>
      <point x="4.0" y="314.7857142857143" type="line"/>
      <point x="288.2857142857143" y="968.0" type="line"/>
      <point x="17.0" y="968.0" type="line"/>
      <point x="17.0" y="1456.0" type="line"/>
      <point x="908.0" y="1456.0" type="line"/>
      <point x="908.0" y="1122.0" type="line"/>
      <point x="623.3214285714286" y="468.0" type="line"/>
      <point x="912.0" y="468.0" type="line"/>
      <point x="912.0" y="0.0" type="line"/>
    </contour>
  </outline>
</glyph>
<glyph name="bracketright" format="2">
  <advance width="621"/>
  <unicode hex="005D"/>
  <outline>
    <contour>
      <point x="519.1785714285714" y="-310.0" type="line"/>
      <point x="-3.8214285714285694" y="-310.0" type="line"/>
      <point x="-3.8214285714285694" y="-20.35714285714286" type="line"/>
      <point x="165.17857142857142" y="-20.35714285714286" type="line"/>
      <point x="165.17857142857142" y="1166.357142857143" type="line"/>
      <point x="-3.8214285714285694" y="1166.357142857143" type="line"/>
      <point x="-3.8214285714285694" y="1456.0" type="line"/>
      <point x="519.1785714285714" y="1456.0" type="line"/>
    </contour>
  </outline>
</glyph>
<glyph name="asciicircum" format="2">
  <advance width="897"/>
  <unicode hex="005E"/>
  <outline>
    <contour>
      <point x="13.0" y="745.0" type="line"/>
      <point x="307.0" y="1431.0" type="line"/>
      <point x="590.0" y="1431.0" type="line"/>
      <point x="884.0" y="745.0" type="line"/>
      <point x="562.3571428571429" y="745.0" type="line"/>
      <point x="448.0" y="1114.0" type="line"/>
      <point x="335.64285714285717" y="745.0" type="line"/>
    </contour>
  </outline>
</glyph>
<glyph name="b" format="2">
  <advance width="1009"/>
  <unicode hex="0062"/>
  <outline>
    <contour>
      <point x="8.0" y="0.0" type="line"/>
      <point x="8.0" y="1456.0" type="line"/>
      <point x="485.0" y="1456.0" type="line"/>
      <point x="485.0" y="862.0" type="line"/>
      <point x="503.0" y="883.5892857142857"/>
      <point x="606.0" y="940.0"/>
      <point x="696.0" y="940.0" type="qcurve" smooth="yes"/>
      <point x="833.0" y="940.0"/>
      <point x="1005.0" y="729.0"/>
      <point x="1005.0" y="509.0" type="qcurve" smooth="yes"/>
      <point x="1005.0" y="445.0" type="line" smooth="yes"/>
      <point x="1005.0" y="211.0"/>
      <point x="833.0" y="-15.0"/>
      <point x="686.0" y="-15.0" type="qcurve" smooth="yes"/>
      <point x="615.0" y="-15.0"/>
      <point x="510.0" y="23.607142857142858"/>
      <point x="480.0" y="50.0" type="qcurve"/>
      <point x="480.0" y="50.0" type="line"/>
      <point x="480.0" y="0.0" type="line"/>
    </contour>
    <contour>
      <point x="492.0" y="387.17857142857144" type="line"/>
      <point x="492.0" y="380.17857142857144"/>
      <point x="498.0" y="374.17857142857144"/>
      <point x="506.0" y="374.17857142857144" type="qcurve" smooth="yes"/>
      <point x="513.0" y="374.17857142857144"/>
      <point x="519.0" y="365.82142857142856"/>
      <point x="519.0" y="363.0" type="qcurve" smooth="yes"/>
      <point x="519.0" y="549.0" type="line" smooth="yes"/>
      <point x="519.0" y="549.1785714285714"/>
      <point x="512.0" y="542.8214285714286"/>
      <point x="506.0" y="542.8214285714286" type="qcurve" smooth="yes"/>
      <point x="498.0" y="542.8214285714286"/>
      <point x="492.0" y="535.8214285714286"/>
      <point x="492.0" y="525.8214285714286" type="qcurve"/>
    </contour>
  </outline>
</glyph>
<glyph name="g" format="2">
  <advance width="1013"/>
  <unicode hex="0067"/>
  <outline>
    <contour>
      <point x="97.0" y="-411.0" type="qcurve"/>
      <point x="92.0" y="-23.35714285714286" type="line"/>
      <point x="125.0" y="-40.553571428571416"/>
      <point x="262.0" y="-72.75"/>
      <point x="356.0" y="-72.75" type="qcurve" smooth="yes"/>
      <point x="437.0" y="-72.75"/>
      <point x="518.0" y="-5.517857142857139"/>
      <point x="518.0" y="56.71428571428572" type="qcurve" smooth="yes"/>
      <point x="518.0" y="87.0" type="line"/>
      <point x="493.0" y="50.410714285714285"/>
      <point x="388.0" y="6.0"/>
      <point x="308.0" y="6.0" type="qcurve" smooth="yes"/>
      <point x="177.0" y="6.0"/>
      <point x="4.0" y="217.0"/>
      <point x="4.0" y="445.0" type="qcurve" smooth="yes"/>
      <point x="4.0" y="509.0" type="line" smooth="yes"/>
      <point x="4.0" y="729.0"/>
      <point x="176.0" y="931.0"/>
      <point x="302.0" y="931.0" type="qcurve" smooth="yes"/>
      <point x="399.0" y="931.0"/>
      <point x="493.0" y="875.3928571428571"/>
      <point x="506.0" y="852.0" type="qcurve"/>
      <point x="508.0" y="852.0" type="line"/>
      <point x="508.0" y="914.0" type="line"/>
      <point x="1008.0" y="914.0" type="line"/>
      <point x="1008.0" y="156.71428571428572" type="line" smooth="yes"/>
      <point x="1008.0" y="-199.94642857142858"/>
      <point x="655.0" y="-451.0"/>
      <point x="425.0" y="-451.0" type="qcurve" smooth="yes"/>
      <point x="278.0" y="-451.0"/>
      <point x="131.0" y="-424.60714285714283"/>
    </contour>
    <contour>
      <point x="490.0" y="363.0" type="line" smooth="yes"/>
      <point x="490.0" y="365.82142857142856"/>
      <point x="496.0" y="374.17857142857144"/>
      <point x="503.0" y="374.17857142857144" type="qcurve" smooth="yes"/>
      <point x="511.0" y="374.17857142857144"/>
      <point x="517.0" y="380.17857142857144"/>
      <point x="517.0" y="387.17857142857144" type="qcurve"/>
      <point x="517.0" y="525.8214285714286" type="line"/>
      <point x="517.0" y="533.8214285714286"/>
      <point x="511.0" y="542.8214285714286"/>
      <point x="503.0" y="542.8214285714286" type="qcurve" smooth="yes"/>
      <point x="497.0" y="542.8214285714286"/>
      <point x="490.0" y="549.1785714285714"/>
      <point x="490.0" y="549.0" type="qcurve" smooth="yes"/>
    </contour>
  </outline>
</glyph>
<glyph name="h" format="2">
  <advance width="1010"/>
  <unicode hex="0068"/>
  <outline>
    <contour>
      <point x="8.0" y="0.0" type="line"/>
      <point x="8.0" y="1456.0" type="line"/>
      <point x="492.0" y="1456.0" type="line"/>
      <point x="492.0" y="853.0178571428571" type="line"/>
      <point x="507.0" y="874.3928571428571"/>
      <point x="626.0357142857142" y="938.0"/>
      <point x="730.6428571428571" y="938.0" type="qcurve" smooth="yes"/>
      <point x="850.0" y="938.0"/>
      <point x="1004.0" y="808.7857142857143"/>
      <point x="1004.0" y="667.6071428571429" type="qcurve" smooth="yes"/>
      <point x="1004.0" y="0.0" type="line"/>
      <point x="516.0" y="0.0" type="line"/>
      <point x="516.0" y="543.6071428571429" type="line" smooth="yes"/>
      <point x="516.0" y="548.6071428571429"/>
      <point x="512.0" y="553.6071428571429"/>
      <point x="506.0" y="553.6071428571429" type="qcurve" smooth="yes"/>
      <point x="499.0" y="553.6071428571429"/>
      <point x="496.0" y="543.6071428571429"/>
      <point x="496.0" y="534.6071428571429" type="qcurve"/>
      <point x="496.0" y="0.0" type="line"/>
    </contour>
  </outline>
</glyph>
<glyph name="j" format="2">
  <advance width="518"/>
  <unicode hex="006A"/>
  <outline>
    <contour>
      <point x="-208.0" y="-419.0" type="qcurve"/>
      <point x="-221.0" y="-14.571428571428584" type="line"/>
      <point x="-198.0" y="-19.571428571428584"/>
      <point x="-130.0" y="-26.571428571428584"/>
      <point x="-77.0" y="-26.571428571428584" type="qcurve" smooth="yes"/>
      <point x="-30.0" y="-26.571428571428584"/>
      <point x="14.0" y="21.42857142857143"/>
      <point x="14.0" y="95.42857142857144" type="qcurve" smooth="yes"/>
      <point x="14.0" y="914.0" type="line"/>
      <point x="511.0" y="914.0" type="line"/>
      <point x="511.0" y="-7.0" type="line" smooth="yes"/>
      <point x="511.0" y="-202.0"/>
      <point x="264.0" y="-441.0"/>
      <point x="38.0" y="-441.0" type="qcurve" smooth="yes"/>
      <point x="-56.0" y="-441.0"/>
      <point x="-163.0" y="-426.1920619607866"/>
    </contour>
    <contour>
      <point x="3.1785714285714306" y="1182.25" type="qcurve" smooth="yes"/>
      <point x="3.1785714285714306" y="1298.75"/>
      <point x="137.58928571428572" y="1455.017857142857"/>
      <point x="264.0" y="1455.017857142857" type="qcurve" smooth="yes"/>
      <point x="391.4107142857143" y="1455.017857142857"/>
      <point x="522.8214285714286" y="1300.75"/>
      <point x="522.8214285714286" y="1182.25" type="qcurve" smooth="yes"/>
      <point x="522.8214285714286" y="1068.75"/>
      <point x="387.4107142857143" y="904.4821428571429"/>
      <point x="260.0" y="904.4821428571429" type="qcurve" smooth="yes"/>
      <point x="134.58928571428572" y="904.4821428571429"/>
      <point x="3.1785714285714306" y="1068.75"/>
    </contour>
  </outline>
</glyph>
<glyph name="k" format="2">
  <advance width="1081"/>
  <unicode hex="006B"/>
  <outline>
    <contour>
      <point x="8.0" y="0.0" type="line"/>
      <point x="8.0" y="1456.0" type="line"/>
      <point x="495.0" y="1456.0" type="line"/>
      <point x="495.0" y="796.2857142857143" type="line"/>
      <point x="550.4285714285714" y="914.0" type="line"/>
      <point x="1060.0" y="914.0" type="line"/>
      <point x="495.0" y="92.76785714285717" type="line"/>
      <point x="495.0" y="0.0" type="line"/>
    </contour>
    <contour>
      <point x="556.2857142857142" y="0.0" type="line"/>
      <point x="452.69642857142856" y="370.3928571428571" type="line"/>
      <point x="736.2142857142857" y="788.5357142857143" type="line"/>
      <point x="1091.0" y="0.0" type="line"/>
    </contour>
  </outline>
</glyph>
<glyph name="m" format="2">
  <advance width="1518"/>
  <unicode hex="006D"/>
  <outline>
    <contour>
      <point x="8.0" y="0.0" type="line"/>
      <point x="8.0" y="914.0" type="line"/>
      <point x="492.0" y="914.0" type="line"/>
      <point x="492.0" y="832.0" type="line"/>
      <point x="492.0" y="832.0" type="line"/>
      <point x="510.0" y="862.7857142857143"/>
      <point x="642.0" y="938.0"/>
      <point x="754.0" y="938.0" type="qcurve" smooth="yes"/>
      <point x="856.0" y="938.0"/>
      <point x="972.0" y="863.4642857142857"/>
      <point x="1000.0" y="811.0714285714286" type="qcurve"/>
      <point x="1010.0" y="811.0714285714286" type="line"/>
      <point x="1033.0" y="862.8214285714286"/>
      <point x="1146.0" y="938.0"/>
      <point x="1252.0" y="938.0" type="qcurve" smooth="yes"/>
      <point x="1372.0" y="938.0"/>
      <point x="1512.0" y="808.5892857142857"/>
      <point x="1512.0" y="667.6071428571429" type="qcurve" smooth="yes"/>
      <point x="1512.0" y="0.0" type="line"/>
      <point x="1024.0" y="0.0" type="line"/>
      <point x="1024.0" y="543.6071428571429" type="line" smooth="yes"/>
      <point x="1024.0" y="548.6071428571429"/>
      <point x="1020.0" y="553.6071428571429"/>
      <point x="1014.0" y="553.6071428571429" type="qcurve" smooth="yes"/>
      <point x="1007.0" y="553.6071428571429"/>
      <point x="1004.0" y="543.6071428571429"/>
      <point x="1004.0" y="534.6071428571429" type="qcurve"/>
      <point x="1004.0" y="0.0" type="line"/>
      <point x="516.0" y="0.0" type="line"/>
      <point x="516.0" y="543.6071428571429" type="line" smooth="yes"/>
      <point x="516.0" y="548.6071428571429"/>
      <point x="512.0" y="553.6071428571429"/>
      <point x="506.0" y="553.6071428571429" type="qcurve" smooth="yes"/>
      <point x="499.0" y="553.6071428571429"/>
      <point x="496.0" y="543.6071428571429"/>
      <point x="496.0" y="534.6071428571429" type="qcurve"/>
      <point x="496.0" y="0.0" type="line"/>
    </contour>
  </outline>
</glyph>
<glyph name="p" format="2">
  <advance width="1004"/>
  <unicode hex="0070"/>
  <outline>
    <contour>
      <point x="8.0" y="-388.0" type="line"/>
      <point x="8.0" y="914.0" type="line"/>
      <point x="485.00000000000006" y="914.0" type="line"/>
      <point x="485.00000000000006" y="861.0" type="line"/>
      <point x="489.0" y="862.0" type="line"/>
      <point x="507.0" y="885.3928571428571"/>
      <point x="600.0" y="940.0"/>
      <point x="696.0" y="940.0" type="qcurve" smooth="yes"/>
      <point x="830.0" y="940.0"/>
      <point x="1000.0" y="724.0"/>
      <point x="1000.0" y="509.0" type="qcurve" smooth="yes"/>
      <point x="1000.0" y="445.0" type="line" smooth="yes"/>
      <point x="1000.0" y="211.0"/>
      <point x="822.0" y="-15.0"/>
      <point x="691.0" y="-15.0" type="qcurve" smooth="yes"/>
      <point x="616.0" y="-15.0"/>
      <point x="536.0" y="-7.589285714285715"/>
      <point x="492.0" y="12.0" type="qcurve"/>
      <point x="492.0" y="-388.0" type="line"/>
    </contour>
    <contour>
      <point x="492.0" y="387.17857142857144" type="line"/>
      <point x="492.0" y="380.17857142857144"/>
      <point x="498.0" y="374.17857142857144"/>
      <point x="506.0" y="374.17857142857144" type="qcurve" smooth="yes"/>
      <point x="513.0" y="374.17857142857144"/>
      <point x="519.0" y="365.82142857142856"/>
      <point x="519.0" y="363.0" type="qcurve" smooth="yes"/>
      <point x="519.0" y="549.0" type="line" smooth="yes"/>
      <point x="519.0" y="549.1785714285714"/>
      <point x="512.0" y="542.8214285714286"/>
      <point x="506.0" y="542.8214285714286" type="qcurve" smooth="yes"/>
      <point x="498.0" y="542.8214285714286"/>
      <point x="492.0" y="535.8214285714286"/>
      <point x="492.0" y="525.8214285714286" type="qcurve"/>
    </contour>
  </outline>
</glyph>
<glyph name="q" format="2">
  <advance width="1014"/>
  <unicode hex="0071"/>
  <outline>
    <contour>
      <point x="4.0" y="445.0" type="qcurve" smooth="yes"/>
      <point x="4.0" y="509.0" type="line" smooth="yes"/>
      <point x="4.0" y="729.0"/>
      <point x="180.0" y="940.0"/>
      <point x="313.0" y="940.0" type="qcurve" smooth="yes"/>
      <point x="398.0" y="940.0"/>
      <point x="492.0" y="884.3928571428571"/>
      <point x="508.0" y="861.0" type="qcurve"/>
      <point x="511.0" y="861.0" type="line"/>
      <point x="511.0" y="914.0" type="line"/>
      <point x="1006.0" y="914.0" type="line"/>
      <point x="1006.0" y="-388.0" type="line"/>
      <point x="518.0" y="-388.0" type="line"/>
      <point x="518.0" y="60.58928571428571" type="line"/>
      <point x="518.0" y="60.0" type="line"/>
      <point x="489.0" y="33.410714285714285"/>
      <point x="384.0" y="-5.0"/>
      <point x="315.0" y="-5.0" type="qcurve" smooth="yes"/>
      <point x="172.0" y="-5.0"/>
      <point x="4.0" y="211.0"/>
    </contour>
    <contour>
      <point x="489.0" y="373.0" type="line" smooth="yes"/>
      <point x="489.0" y="375.82142857142856"/>
      <point x="495.0" y="384.17857142857144"/>
      <point x="502.0" y="384.17857142857144" type="qcurve" smooth="yes"/>
      <point x="510.0" y="384.17857142857144"/>
      <point x="516.0" y="390.17857142857144"/>
      <point x="516.0" y="397.17857142857144" type="qcurve"/>
      <point x="516.0" y="525.8214285714286" type="line"/>
      <point x="516.0" y="533.8214285714286"/>
      <point x="510.0" y="542.8214285714286"/>
      <point x="502.0" y="542.8214285714286" type="qcurve" smooth="yes"/>
      <point x="496.0" y="542.8214285714286"/>
      <point x="489.0" y="549.1785714285714"/>
      <point x="489.0" y="549.0" type="qcurve" smooth="yes"/>
    </contour>
  </outline>
</glyph>
<glyph name="r" format="2">
  <advance width="657"/>
  <unicode hex="0072"/>
  <outline>
    <contour>
      <point x="8.0" y="0.0" type="line"/>
      <point x="8.0" y="914.0" type="line"/>
      <point x="484.0" y="914.0" type="line"/>
      <point x="484.0" y="834.0" type="line"/>
      <point x="485.0" y="834.0" type="line"/>
      <point x="497.0" y="871.0"/>
      <point x="560.0" y="934.0"/>
      <point x="601.0" y="934.0" type="qcurve" smooth="yes"/>
      <point x="624.0" y="934.0"/>
      <point x="652.0" y="929.0"/>
      <point x="657.0" y="925.0" type="qcurve"/>
      <point x="657.0" y="486.1071428571429" type="line"/>
      <point x="647.0" y="494.1071428571429"/>
      <point x="617.0" y="503.1071428571429"/>
      <point x="599.0" y="503.1071428571429" type="qcurve" smooth="yes"/>
      <point x="574.0" y="503.1071428571429"/>
      <point x="511.0" y="467.1071428571429"/>
      <point x="494.0" y="429.1071428571429" type="qcurve"/>
      <point x="496.0" y="0.0" type="line"/>
    </contour>
  </outline>
</glyph>
<glyph name="s" format="2">
  <advance width="885"/>
  <unicode hex="0073"/>
  <outline>
    <contour>
      <point x="1.0" y="301.89285714285717" type="line"/>
      <point x="382.0" y="301.89285714285717" type="line"/>
      <point x="382.0" y="273.89285714285717" type="line" smooth="yes"/>
      <point x="382.0" y="267.5892857142857"/>
      <point x="395.0" y="264.2857142857143"/>
      <point x="405.0" y="264.2857142857143" type="qcurve" smooth="yes"/>
      <point x="414.0" y="264.2857142857143"/>
      <point x="426.4107142857142" y="265.82142857142856"/>
      <point x="426.4107142857142" y="272.89285714285717" type="qcurve" smooth="yes"/>
      <point x="426.4107142857142" y="289.9642857142857"/>
      <point x="380.0" y="297.125"/>
      <point x="252.0" y="327.19642857142856" type="qcurve" smooth="yes"/>
      <point x="128.0" y="356.26785714285717"/>
      <point x="14.55357142857143" y="511.1428571428571"/>
      <point x="14.55357142857143" y="629.1428571428571" type="qcurve" smooth="yes"/>
      <point x="14.55357142857143" y="771.4821428571429"/>
      <point x="214.96428571428572" y="947.0"/>
      <point x="424.9642857142857" y="947.0" type="qcurve" smooth="yes"/>
      <point x="649.9642857142857" y="947.0"/>
      <point x="824.9642857142857" y="780.5"/>
      <point x="824.9642857142857" y="671.125" type="qcurve" smooth="yes"/>
      <point x="824.9642857142857" y="606.125" type="line"/>
      <point x="446.9642857142858" y="606.125" type="line"/>
      <point x="446.9642857142858" y="624.3392857142857" type="line" smooth="yes"/>
      <point x="446.9642857142858" y="630.0178571428571"/>
      <point x="434.9642857142857" y="634.7142857142857"/>
      <point x="425.9642857142857" y="634.7142857142857" type="qcurve" smooth="yes"/>
      <point x="416.9642857142857" y="634.7142857142857"/>
      <point x="406.55357142857144" y="634.1785714285714"/>
      <point x="406.55357142857144" y="630.1071428571429" type="qcurve" smooth="yes"/>
      <point x="406.55357142857144" y="623.0357142857143"/>
      <point x="440.0" y="615.9285714285714"/>
      <point x="596.0" y="586.8571428571429" type="qcurve" smooth="yes"/>
      <point x="734.0" y="561.7857142857143"/>
      <point x="878.0" y="440.85714285714283"/>
      <point x="878.0" y="308.85714285714283" type="qcurve" smooth="yes"/>
      <point x="878.0" y="170.51785714285714"/>
      <point x="661.0" y="-21.0"/>
      <point x="436.0" y="-21.0" type="qcurve" smooth="yes"/>
      <point x="217.0" y="-21.0"/>
      <point x="1.0" y="141.33928571428572"/>
      <point x="1.0" y="284.89285714285717" type="qcurve" smooth="yes"/>
    </contour>
  </outline>
</glyph>
<glyph name="v" format="2">
  <advance width="938"/>
  <unicode hex="0076"/>
  <outline>
    <contour>
      <point x="-10.0" y="914.0" type="line"/>
      <point x="443.0" y="914.0" type="line"/>
      <point x="483.92857142857144" y="647.6428571428571" type="line" smooth="yes"/>
      <point x="486.92857142857144" y="627.6428571428571"/>
      <point x="489.55357142857144" y="609.4642857142858"/>
      <point x="491.1428571428571" y="596.3928571428571" type="qcurve"/>
      <point x="492.1428571428571" y="596.3928571428571" type="line"/>
      <point x="492.5357142857142" y="609.25"/>
      <point x="494.1607142857142" y="630.0"/>
      <point x="496.17857142857144" y="644.6428571428571" type="qcurve" smooth="yes"/>
      <point x="530.5357142857142" y="914.0" type="line"/>
      <point x="948.0" y="914.0" type="line"/>
      <point x="748.0" y="0.0" type="line"/>
      <point x="196.0" y="0.0" type="line"/>
    </contour>
  </outline>
</glyph>
<glyph name="z" format="2">
  <advance width="867"/>
  <unicode hex="007A"/>
  <outline>
    <contour>
      <point x="6.0" y="0.0" type="line"/>
      <point x="6.0" y="307.3928571428571" type="line"/>
      <point x="221.0" y="496.82142857142856" type="line"/>
      <point x="25.0" y="496.82142857142856" type="line"/>
      <point x="25.0" y="914.0" type="line"/>
      <point x="839.0" y="914.0" type="line"/>
      <point x="839.0" y="586.0178571428571" type="line"/>
      <point x="625.0" y="397.17857142857144" type="line"/>
      <point x="857.0" y="397.17857142857144" type="line"/>
      <point x="857.0" y="0.0" type="line"/>
    </contour>
  </outline>
</glyph>
<glyph name="braceleft" format="2">
  <advance width="687"/>
  <unicode hex="007B"/>
  <outline>
    <contour>
      <point x="658.0" y="-312.0" type="line"/>
      <point x="297.0" y="-324.0"/>
      <point x="102.0" y="-90.92857142857142"/>
      <point x="148.0" y="109.0" type="qcurve" smooth="yes"/>
      <point x="192.0" y="294.14285714285717" type="line" smooth="yes"/>
      <point x="209.0" y="374.94642857142856"/>
      <point x="128.0" y="422.14285714285717"/>
      <point x="34.0" y="422.14285714285717" type="qcurve"/>
      <point x="34.0" y="725.8571428571429" type="line"/>
      <point x="128.0" y="725.8571428571429"/>
      <point x="209.0" y="773.0535714285714"/>
      <point x="192.0" y="853.8571428571429" type="qcurve" smooth="yes"/>
      <point x="148.0" y="1039.0" type="line" smooth="yes"/>
      <point x="103.0" y="1232.9285714285713"/>
      <point x="297.0" y="1466.0"/>
      <point x="658.0" y="1460.0" type="qcurve"/>
      <point x="658.0" y="1174.5357142857142" type="line"/>
      <point x="555.0" y="1174.5357142857142"/>
      <point x="471.0" y="1081.017857142857"/>
      <point x="492.0" y="987.1428571428571" type="qcurve" smooth="yes"/>
      <point x="536.0" y="814.0" type="line" smooth="yes"/>
      <point x="556.0" y="729.8035714285714"/>
      <point x="496.0" y="604.0"/>
      <point x="403.0" y="574.0" type="qcurve"/>
      <point x="496.0" y="544.0"/>
      <point x="557.0" y="418.19642857142856"/>
      <point x="536.0" y="334.0" type="qcurve" smooth="yes"/>
      <point x="492.0" y="160.85714285714286" type="line" smooth="yes"/>
      <point x="471.0" y="66.98214285714286"/>
      <point x="555.0" y="-26.535714285714278"/>
      <point x="658.0" y="-26.535714285714278" type="qcurve"/>
    </contour>
  </outline>
</glyph>
<glyph name="bar" format="2">
  <advance width="554"/>
  <unicode hex="007C"/>
  <outline>
    <contour>
      <point x="80.0" y="-416.0" type="line"/>
      <point x="80.0" y="1456.0" type="line"/>
      <point x="474.0" y="1456.0" type="line"/>
      <point x="474.0" y="-416.0" type="line"/>
    </contour>
  </outline>
</glyph>
<glyph name="asciitilde" format="2">
  <advance width="792"/>
  <unicode hex="007E"/>
  <outline>
    <contour>
      <point x="5.0" y="337.07142857142856" type="qcurve"/>
      <point x="5.0" y="784.8928571428571" type="line"/>
      <point x="37.0" y="843.8928571428571"/>
      <point x="131.00000000000006" y="898.8928571428571"/>
      <point x="192.0" y="898.8928571428571" type="qcurve" smooth="yes"/>
      <point x="238.0" y="898.8928571428571"/>
      <point x="349.0" y="871.8928571428571"/>
      <point x="413.0" y="844.8928571428571" type="qcurve" smooth="yes"/>
      <point x="480.0" y="816.8928571428571"/>
      <point x="581.0000000000001" y="785.8928571428571"/>
      <point x="622.0" y="785.8928571428571" type="qcurve" smooth="yes"/>
      <point x="667.9999999999999" y="785.8928571428571"/>
      <point x="747.0" y="833.8928571428571"/>
      <point x="787.0" y="888.8928571428571" type="qcurve"/>
      <point x="787.0" y="401.07142857142856" type="line"/>
      <point x="764.0" y="370.07142857142856"/>
      <point x="686.0" y="327.07142857142856"/>
      <point x="624.0" y="327.07142857142856" type="qcurve" smooth="yes"/>
      <point x="578.0" y="327.07142857142856"/>
      <point x="453.0" y="355.07142857142856"/>
      <point x="373.0" y="386.07142857142856" type="qcurve" smooth="yes"/>
      <point x="311.0" y="409.07142857142856"/>
      <point x="214.0" y="432.07142857142856"/>
      <point x="177.0" y="432.07142857142856" type="qcurve" smooth="yes"/>
      <point x="108.0" y="432.07142857142856"/>
      <point x="31.0" y="374.07142857142856"/>
    </contour>
  </outline>
</glyph>
<glyph name="exclamdown" format="2">
  <advance width="620"/>
  <unicode hex="00A1"/>
  <outline>
    <contour>
      <point x="434.0" y="1056.5357142857142" type="qcurve" smooth="yes"/>
      <point x="434.0" y="1001.6428571428571"/>
      <point x="370.0" y="923.3928571428571"/>
      <point x="310.0" y="923.3928571428571" type="qcurve" smooth="yes"/>
      <point x="250.0" y="923.3928571428571"/>
      <point x="186.0" y="1001.6428571428571"/>
      <point x="186.0" y="1056.5357142857142" type="qcurve" smooth="yes"/>
      <point x="186.0" y="1111.4285714285713"/>
      <point x="250.0" y="1189.6785714285713"/>
      <point x="310.0" y="1189.6785714285713" type="qcurve" smooth="yes"/>
      <point x="370.0" y="1189.6785714285713"/>
      <point x="434.0" y="1111.4285714285713"/>
    </contour>
    <contour>
      <point x="392.0" y="740.0" type="line"/>
      <point x="407.0" y="-288.32142857142856" type="line"/>
      <point x="213.0" y="-288.32142857142856" type="line"/>
      <point x="228.0" y="740.0" type="line"/>
    </contour>
  </outline>
</glyph>
<glyph name="sterling" format="2">
  <advance width="1024"/>
  <unicode hex="00A3"/>
  <outline>
    <contour>
      <point x="1028.0" y="0.0" type="line"/>
      <point x="36.0" y="0.0" type="line"/>
      <point x="36.0" y="179.64285714285714" type="line"/>
      <point x="91.80357142857143" y="179.64285714285714" type="line" smooth="yes"/>
      <point x="183.80357142857142" y="179.64285714285714"/>
      <point x="263.2142857142857" y="332.64285714285717"/>
      <point x="250.0" y="467.0" type="qcurve" smooth="yes"/>
      <point x="195.0" y="1039.0" type="line" smooth="yes"/>
      <point x="177.0" y="1228.0"/>
      <point x="380.0" y="1476.0"/>
      <point x="581.0" y="1476.0" type="qcurve" smooth="yes"/>
      <point x="771.0" y="1476.0"/>
      <point x="984.0" y="1270.0"/>
      <point x="984.0" y="1103.0" type="qcurve" smooth="yes"/>
      <point x="984.0" y="1087.0" type="line"/>
      <point x="792.0" y="1087.0" type="line"/>
      <point x="792.0" y="1103.1964285714287" type="line" smooth="yes"/>
      <point x="785.0" y="1202.482142857143"/>
      <point x="674.8035714285714" y="1293.2857142857142"/>
      <point x="582.8035714285714" y="1293.2857142857142" type="qcurve" smooth="yes"/>
      <point x="483.8392857142857" y="1293.2857142857142"/>
      <point x="370.57142857142856" y="1169.2857142857142"/>
      <point x="383.0" y="1039.0" type="qcurve" smooth="yes"/>
      <point x="434.0" y="508.0" type="line" smooth="yes"/>
      <point x="446.01785714285717" y="381.42857142857144"/>
      <point x="392.0" y="226.64285714285714"/>
      <point x="322.0" y="185.64285714285714" type="qcurve"/>
      <point x="1028.0" y="185.64285714285714" type="line"/>
    </contour>
    <contour>
      <point x="824.0" y="625.0" type="line"/>
      <point x="52.0" y="625.0" type="line"/>
      <point x="52.0" y="780.0" type="line"/>
      <point x="824.0" y="780.0" type="line"/>
    </contour>
  </outline>
</glyph>
<glyph name="copyright" format="2">
  <advance width="1654"/>
  <unicode hex="00A9"/>
  <guideline x="0" y="901.0" angle="0" identifier="0Pjz0qKr8z"/>
  <guideline x="0" y="555.0" angle="0" identifier="sJo8BlDiJ7"/>
  <outline>
    <contour>
      <point x="1030.0" y="546.0" type="qcurve"/>
      <point x="1212.0" y="546.0" type="line"/>
      <point x="1212.0" y="375.0"/>
      <point x="977.0" y="205.0"/>
      <point x="813.0" y="205.0" type="qcurve" smooth="yes"/>
      <point x="642.0" y="205.0"/>
      <point x="419.0" y="437.0"/>
      <point x="419.0" y="664.0" type="qcurve" smooth="yes"/>
      <point x="419.0" y="703.0" type="line" smooth="yes"/>
      <point x="419.0" y="931.0"/>
      <point x="643.0" y="1170.0"/>
      <point x="830.0" y="1170.0" type="qcurve" smooth="yes"/>
      <point x="1017.0" y="1170.0"/>
      <point x="1213.0" y="983.0"/>
      <point x="1213.0" y="829.0" type="qcurve"/>
      <point x="1031.0" y="829.0" type="line"/>
      <point x="1030.8035714285713" y="905.2142857142857"/>
      <point x="927.8035714285714" y="994.2142857142857"/>
      <point x="828.8035714285714" y="994.2142857142857" type="qcurve" smooth="yes"/>
      <point x="721.8035714285714" y="994.2142857142857"/>
      <point x="612.0" y="856.2142857142857"/>
      <point x="612.0" y="747.0" type="qcurve" smooth="yes"/>
      <point x="612.0" y="621.0" type="line" smooth="yes"/>
      <point x="612.0" y="510.7857142857143"/>
      <point x="731.0" y="373.7857142857143"/>
      <point x="838.0" y="373.7857142857143" type="qcurve" smooth="yes"/>
      <point x="937.0" y="373.7857142857143"/>
      <point x="1030.0" y="468.5892857142857"/>
    </contour>
    <contour>
      <point x="186.0" y="686.0178571428571" type="qcurve" smooth="yes"/>
      <point x="186.0" y="407.26785714285717"/>
      <point x="563.0" y="22.857142857142858"/>
      <point x="828.0" y="22.857142857142858" type="qcurve" smooth="yes"/>
      <point x="1092.0" y="22.857142857142858"/>
      <point x="1469.0" y="407.26785714285717"/>
      <point x="1469.0" y="686.0178571428571" type="qcurve" smooth="yes"/>
      <point x="1469.0" y="965.7678571428571"/>
      <point x="1092.0" y="1346.1785714285713"/>
      <point x="828.0" y="1346.1785714285713" type="qcurve" smooth="yes"/>
      <point x="563.0" y="1346.1785714285713"/>
      <point x="186.0" y="965.7678571428571"/>
    </contour>
    <contour>
      <point x="38.0" y="687.0" type="qcurve" smooth="yes"/>
      <point x="38.0" y="1039.0"/>
      <point x="501.0" y="1519.0"/>
      <point x="827.0" y="1519.0" type="qcurve" smooth="yes"/>
      <point x="1152.0" y="1519.0"/>
      <point x="1616.0" y="1039.0"/>
      <point x="1616.0" y="687.0" type="qcurve" smooth="yes"/>
      <point x="1616.0" y="337.0"/>
      <point x="1152.0" y="-147.0"/>
      <point x="827.0" y="-147.0" type="qcurve" smooth="yes"/>
      <point x="501.0" y="-147.0"/>
      <point x="38.0" y="337.0"/>
    </contour>
  </outline>
</glyph>
<glyph name="logicalnot" format="2">
  <advance width="1024"/>
  <unicode hex="00AC"/>
  <outline>
    <contour>
      <point x="928.0" y="810.8214285714286" type="line"/>
      <point x="928.0" y="376.0" type="line"/>
      <point x="743.0" y="376.0" type="line"/>
      <point x="743.0" y="629.1428571428571" type="line"/>
      <point x="58.0" y="629.1428571428571" type="line"/>
      <point x="58.0" y="810.8214285714286" type="line"/>
    </contour>
  </outline>
</glyph>
<glyph name="registered" format="2">
  <advance width="1654"/>
  <unicode hex="00AE"/>
  <outline>
    <contour>
      <point x="38.0" y="687.0" type="qcurve" smooth="yes"/>
      <point x="38.0" y="1039.0"/>
      <point x="501.0" y="1519.0"/>
      <point x="827.0" y="1519.0" type="qcurve" smooth="yes"/>
      <point x="1152.0" y="1519.0"/>
      <point x="1616.0" y="1039.0"/>
      <point x="1616.0" y="687.0" type="qcurve" smooth="yes"/>
      <point x="1616.0" y="337.0"/>
      <point x="1152.0" y="-147.0"/>
      <point x="827.0" y="-147.0" type="qcurve" smooth="yes"/>
      <point x="501.0" y="-147.0"/>
      <point x="38.0" y="337.0"/>
    </contour>
    <contour>
      <point x="186.0" y="687.0" type="qcurve" smooth="yes"/>
      <point x="186.0" y="406.875"/>
      <point x="563.0" y="22.660714285714285"/>
      <point x="828.0" y="22.660714285714285" type="qcurve" smooth="yes"/>
      <point x="1092.0" y="22.660714285714285"/>
      <point x="1469.0" y="406.875"/>
      <point x="1469.0" y="687.0" type="qcurve" smooth="yes"/>
      <point x="1469.0" y="965.1785714285714"/>
      <point x="1092.0" y="1346.1785714285713"/>
      <point x="828.0" y="1346.1785714285713" type="qcurve" smooth="yes"/>
      <point x="563.0" y="1346.1785714285713"/>
      <point x="186.0" y="965.1785714285714"/>
    </contour>
    <contour>
      <point x="857.1607142857143" y="591.1071428571429" type="line"/>
      <point x="664.0" y="591.1071428571429" type="line"/>
      <point x="664.0" y="225.0" type="line"/>
      <point x="499.0" y="225.0" type="line"/>
      <point x="499.0" y="1158.0" type="line"/>
      <point x="821.0" y="1158.0" type="line" smooth="yes"/>
      <point x="993.0" y="1158.0"/>
      <point x="1197.0" y="1018.0"/>
      <point x="1197.0" y="877.0" type="qcurve" smooth="yes"/>
      <point x="1197.0" y="764.0"/>
      <point x="1088.0" y="632.1428571428571"/>
      <point x="983.125" y="610.1428571428571" type="qcurve"/>
      <point x="1010.3928571428571" y="589.1071428571429"/>
      <point x="1037.75" y="554.0892857142857"/>
      <point x="1055.5357142857142" y="523.9107142857143" type="qcurve" smooth="yes"/>
      <point x="1221.0" y="243.0" type="line"/>
      <point x="1221.0" y="225.0" type="line"/>
      <point x="1042.0" y="225.0" type="line"/>
    </contour>
    <contour>
      <point x="822.0" y="995.2142857142857" type="qcurve" smooth="yes"/>
      <point x="664.0" y="995.2142857142857" type="line"/>
      <point x="664.0" y="743.8928571428571" type="line"/>
      <point x="847.0" y="743.8928571428571" type="line" smooth="yes"/>
      <point x="920.0" y="743.8928571428571"/>
      <point x="1016.0" y="796.9642857142857"/>
      <point x="1016.0" y="859.0" type="qcurve" smooth="yes"/>
      <point x="1016.0" y="930.1785714285714"/>
      <point x="940.0" y="994.4107142857143"/>
    </contour>
  </outline>
</glyph>
<glyph name="plusminus" format="2">
  <advance width="1024"/>
  <unicode hex="00B1"/>
  <outline>
    <contour>
      <point x="57.0" y="603.1428571428571" type="line"/>
      <point x="57.0" y="782.8571428571429" type="line"/>
      <point x="967.0" y="782.8571428571429" type="line"/>
      <point x="967.0" y="603.1428571428571" type="line"/>
    </contour>
    <contour>
      <point x="422.0" y="248.0" type="line"/>
      <point x="422.0" y="1160.0" type="line"/>
      <point x="602.0" y="1160.0" type="line"/>
      <point x="602.0" y="248.0" type="line"/>
    </contour>
    <contour>
      <point x="57.0" y="1.0" type="line"/>
      <point x="57.0" y="180.71428571428572" type="line"/>
      <point x="967.0" y="180.71428571428572" type="line"/>
      <point x="967.0" y="1.0" type="line"/>
    </contour>
  </outline>
</glyph>
<glyph name="twosuperior" format="2">
  <advance width="751"/>
  <unicode hex="00B2"/>
  <outline>
    <contour>
      <point x="85.0" y="697.0" type="line"/>
      <point x="85.0" y="805.0" type="line"/>
      <point x="373.0" y="1066.0" type="line" smooth="yes"/>
      <point x="441.0" y="1127.0"/>
      <point x="481.0" y="1214.0357142857142"/>
      <point x="481.0" y="1243.3035714285713" type="qcurve" smooth="yes"/>
      <point x="481.0" y="1287.1785714285713"/>
      <point x="429.0" y="1335.2142857142858"/>
      <point x="370.0" y="1335.2142857142858" type="qcurve" smooth="yes"/>
      <point x="305.0" y="1335.2142857142858"/>
      <point x="234.0" y="1267.107142857143"/>
      <point x="235.0" y="1198.0" type="qcurve"/>
      <point x="67.0" y="1198.0" type="line"/>
      <point x="66.0" y="1329.0"/>
      <point x="224.0" y="1487.0"/>
      <point x="366.0" y="1487.0" type="qcurve" smooth="yes"/>
      <point x="500.0" y="1487.0"/>
      <point x="652.0" y="1359.0"/>
      <point x="652.0" y="1251.0" type="qcurve" smooth="yes"/>
      <point x="652.0" y="1171.0"/>
      <point x="555.0178571428571" y="1049.1785714285713"/>
      <point x="468.0" y="971.0" type="qcurve" smooth="yes"/>
      <point x="338.5178571428571" y="856.7857142857143" type="line"/>
      <point x="683.0" y="856.3928571428571" type="line"/>
      <point x="683.0" y="697.0" type="line"/>
    </contour>
  </outline>
</glyph>
<glyph name="threesuperior" format="2">
  <advance width="751"/>
  <unicode hex="00B3"/>
  <outline>
    <contour>
      <point x="63.0" y="923.9285714285714" type="qcurve"/>
      <point x="220.0" y="923.9285714285714" type="line"/>
      <point x="220.0" y="880.8928571428571"/>
      <point x="300.0" y="833.8214285714286"/>
      <point x="366.0" y="833.8214285714286" type="qcurve" smooth="yes"/>
      <point x="438.5357142857143" y="833.8214285714286"/>
      <point x="499.0" y="883.2678571428571"/>
      <point x="499.0" y="928.5357142857143" type="qcurve" smooth="yes"/>
      <point x="499.0" y="976.2321428571429"/>
      <point x="424.57142857142856" y="1022.3035714285713"/>
      <point x="350.0" y="1023.1071428571429" type="qcurve" smooth="yes"/>
      <point x="266.0" y="1023.1071428571429" type="line"/>
      <point x="266.0" y="1155.125" type="line"/>
      <point x="350.0" y="1155.125" type="line" smooth="yes"/>
      <point x="425.73214285714283" y="1155.125"/>
      <point x="486.0" y="1205.4285714285713"/>
      <point x="486.0" y="1249.892857142857" type="qcurve" smooth="yes"/>
      <point x="486.0" y="1291.142857142857"/>
      <point x="433.9642857142857" y="1337.2142857142858"/>
      <point x="363.0" y="1337.2142857142858" type="qcurve" smooth="yes"/>
      <point x="306.0" y="1337.2142857142858"/>
      <point x="231.0" y="1291.142857142857"/>
      <point x="231.0" y="1250.107142857143" type="qcurve"/>
      <point x="74.0" y="1250.107142857143" type="line"/>
      <point x="74.0" y="1356.2142857142858"/>
      <point x="241.0" y="1487.0"/>
      <point x="360.0" y="1487.0" type="qcurve" smooth="yes"/>
      <point x="490.0" y="1487.0"/>
      <point x="656.0" y="1372.0"/>
      <point x="656.0" y="1263.0" type="qcurve" smooth="yes"/>
      <point x="656.0" y="1212.0"/>
      <point x="593.0" y="1120.0"/>
      <point x="533.0" y="1098.0" type="qcurve"/>
      <point x="601.0" y="1075.0"/>
      <point x="667.0" y="983.0"/>
      <point x="667.0" y="923.2857142857143" type="qcurve" smooth="yes"/>
      <point x="667.0" y="807.0"/>
      <point x="491.0" y="686.0"/>
      <point x="361.0" y="686.0" type="qcurve" smooth="yes"/>
      <point x="251.92857142857144" y="686.0"/>
      <point x="63.0" y="795.8392857142857"/>
    </contour>
  </outline>
</glyph>
<glyph name="ordmasculine" format="2">
  <advance width="932"/>
  <unicode hex="00BA"/>
  <guideline x="0" y="1975.0" angle="0" identifier="Jnt0R9CyOf"/>
  <outline>
    <contour>
      <point x="122.60714285714286" y="1048.3035714285713" type="qcurve"/>
      <point x="122.60714285714286" y="1119.482142857143" type="line"/>
      <point x="123.0" y="1278.0"/>
      <point x="308.0557036247335" y="1477.0"/>
      <point x="465.0" y="1477.0" type="qcurve" smooth="yes"/>
      <point x="623.0410447761194" y="1477.0"/>
      <point x="807.0" y="1278.0"/>
      <point x="806.6071428571429" y="1119.482142857143" type="qcurve"/>
      <point x="806.6071428571429" y="1048.3035714285713" type="line"/>
      <point x="806.6071428571429" y="889.0"/>
      <point x="623.9442963752665" y="691.0"/>
      <point x="467.0" y="691.0" type="qcurve" smooth="yes"/>
      <point x="308.9589552238806" y="691.0"/>
      <point x="122.60714285714286" y="889.0"/>
    </contour>
    <contour>
      <point x="286.0" y="1116.142857142857" type="qcurve"/>
      <point x="286.0" y="1050.4642857142858" type="line"/>
      <point x="286.0" y="963.3928571428571"/>
      <point x="375.0" y="845.3214285714286"/>
      <point x="467.0" y="845.3214285714286" type="qcurve" smooth="yes"/>
      <point x="556.0" y="845.3214285714286"/>
      <point x="645.0" y="963.3928571428571"/>
      <point x="645.0" y="1050.4642857142858" type="qcurve"/>
      <point x="645.0" y="1116.142857142857" type="line"/>
      <point x="645.0" y="1201.2142857142858"/>
      <point x="555.0" y="1320.2857142857142"/>
      <point x="465.0" y="1320.2857142857142" type="qcurve" smooth="yes"/>
      <point x="375.0" y="1320.2857142857142"/>
      <point x="286.0" y="1201.2142857142858"/>
    </contour>
  </outline>
</glyph>
<glyph name="questiondown" format="2">
  <advance width="968"/>
  <unicode hex="00BF"/>
  <guideline x="0" y="-181.0" angle="0" identifier="apukwP5ffL"/>
  <guideline x="0" y="921.0" angle="0" identifier="5ZPZZL8Rim"/>
  <outline>
    <contour>
      <point x="648.0" y="1036.857142857143" type="qcurve" smooth="yes"/>
      <point x="648.0" y="981.9642857142857"/>
      <point x="584.0" y="903.7142857142857"/>
      <point x="524.0" y="903.7142857142857" type="qcurve" smooth="yes"/>
      <point x="464.0" y="903.7142857142857"/>
      <point x="400.0" y="981.9642857142857"/>
      <point x="400.0" y="1036.857142857143" type="qcurve" smooth="yes"/>
      <point x="400.0" y="1091.75"/>
      <point x="464.0" y="1170.0"/>
      <point x="524.0" y="1170.0" type="qcurve" smooth="yes"/>
      <point x="584.0" y="1170.0"/>
      <point x="648.0" y="1091.75"/>
    </contour>
    <contour>
      <point x="908.0" y="67.73214285714286" type="line"/>
      <point x="908.0" y="43.80357142857143" type="line" smooth="yes"/>
      <point x="908.0" y="-126.10714285714286"/>
      <point x="688.0" y="-328.0"/>
      <point x="498.0" y="-328.0" type="qcurve" smooth="yes"/>
      <point x="308.0" y="-328.0"/>
      <point x="94.0" y="-116.10714285714286"/>
      <point x="94.0" y="57.82142857142857" type="qcurve" smooth="yes"/>
      <point x="94.0" y="191.03571428571428"/>
      <point x="242.0" y="393.5357142857143"/>
      <point x="314.0" y="456.75" type="qcurve" smooth="yes"/>
      <point x="399.0" y="530.4107142857143"/>
      <point x="440.0" y="652.1071428571429"/>
      <point x="440.0" y="720.1428571428571" type="qcurve" smooth="yes"/>
      <point x="440.0" y="730.1428571428571" type="line"/>
      <point x="626.0" y="730.1428571428571" type="line"/>
      <point x="626.0" y="720.1428571428571" type="line" smooth="yes"/>
      <point x="626.0" y="596.125"/>
      <point x="562.0" y="445.8392857142857"/>
      <point x="466.0" y="357.73214285714283" type="qcurve" smooth="yes"/>
      <point x="384.0" y="280.07142857142856"/>
      <point x="280.0" y="153.89285714285714"/>
      <point x="280.0" y="57.82142857142857" type="qcurve" smooth="yes"/>
      <point x="280.0" y="-38.25"/>
      <point x="388.0" y="-146.75"/>
      <point x="498.0" y="-146.75" type="qcurve" smooth="yes"/>
      <point x="608.0" y="-146.75"/>
      <point x="723.0" y="-46.285714285714285"/>
      <point x="723.0" y="43.80357142857143" type="qcurve" smooth="yes"/>
      <point x="723.0" y="67.73214285714286" type="line"/>
    </contour>
  </outline>
</glyph>
<glyph name="germandbls" format="2">
  <advance width="1186"/>
  <unicode hex="00DF"/>
  <outline>
    <contour>
      <point x="332.0" y="1092.0" type="qcurve" name="hr00"/>
      <point x="332.0" y="0.0" type="line"/>
      <point x="148.0" y="0.0" type="line"/>
      <point x="148.0" y="1092.0" type="line" smooth="yes"/>
      <point x="148.0" y="1295.0"/>
      <point x="356.0" y="1534.0"/>
      <point x="555.0" y="1534.0" type="qcurve" smooth="yes"/>
      <point x="719.0" y="1534.0"/>
      <point x="917.0" y="1361.0"/>
      <point x="917.0" y="1215.0" type="qcurve" smooth="yes"/>
      <point x="917.0" y="1127.0"/>
      <point x="866.6071428571429" y="1016.3928571428571"/>
      <point x="830.3928571428571" y="973.1964285714286" type="qcurve" smooth="yes"/>
      <point x="798.7857142857143" y="935.0"/>
      <point x="738.4107142857143" y="859.0"/>
      <point x="738.4107142857143" y="830.0" type="qcurve" smooth="yes"/>
      <point x="738.4107142857143" y="782.0"/>
      <point x="872.0" y="681.0"/>
      <point x="953.0" y="619.0" type="qcurve" smooth="yes"/>
      <point x="1031.0" y="560.0"/>
      <point x="1138.0" y="411.0"/>
      <point x="1138.0" y="282.0" type="qcurve" smooth="yes"/>
      <point x="1138.0" y="157.0"/>
      <point x="920.0" y="-20.0"/>
      <point x="753.0" y="-20.0" type="qcurve" smooth="yes"/>
      <point x="589.0" y="-20.0"/>
      <point x="392.0" y="129.0"/>
      <point x="392.0" y="278.0" type="qcurve" smooth="yes"/>
      <point x="392.0" y="304.0" type="line"/>
      <point x="555.0" y="304.0" type="line"/>
      <point x="555.0" y="295.0" type="line" smooth="yes"/>
      <point x="555.0" y="222.78571428571428"/>
      <point x="660.0" y="148.67857142857142"/>
      <point x="755.0" y="148.67857142857142" type="qcurve" smooth="yes"/>
      <point x="861.8928571428571" y="148.67857142857142"/>
      <point x="963.0" y="229.78571428571428"/>
      <point x="963.0" y="302.0" type="qcurve" smooth="yes"/>
      <point x="963.0" y="371.0"/>
      <point x="864.0" y="466.0"/>
      <point x="807.0" y="512.0" type="qcurve" smooth="yes"/>
      <point x="735.0" y="569.0"/>
      <point x="563.1964285714286" y="706.3928571428571"/>
      <point x="563.1964285714286" y="797.3928571428571" type="qcurve" smooth="yes"/>
      <point x="563.1964285714286" y="871.3928571428571"/>
      <point x="645.0178571428571" y="981.8035714285714"/>
      <point x="678.1964285714286" y="1025.8035714285713" type="qcurve" smooth="yes"/>
      <point x="707.7857142857143" y="1065.4107142857142"/>
      <point x="742.0" y="1149.0"/>
      <point x="742.0" y="1197.517857142857" type="qcurve" smooth="yes"/>
      <point x="742.0" y="1275.3214285714287"/>
      <point x="637.5178571428571" y="1363.357142857143"/>
      <point x="551.0" y="1363.357142857143" type="qcurve" smooth="yes"/>
      <point x="448.0" y="1363.357142857143"/>
      <point x="332.0" y="1227.25"/>
    </contour>
  </outline>
</glyph>
<glyph name="eth" format="2">
  <advance width="1114"/>
  <unicode hex="00F0"/>
  <outline>
    <contour>
      <point x="210.07142857142858" y="1410.5892857142858" type="qcurve"/>
      <point x="271.0" y="1581.0" type="line"/>
      <point x="608.0" y="1506.0"/>
      <point x="1029.0" y="1008.0"/>
      <point x="1029.0" y="633.0" type="qcurve"/>
      <point x="1029.0" y="535.0" type="line"/>
      <point x="1029.0" y="289.0"/>
      <point x="763.0" y="-20.0"/>
      <point x="561.0" y="-20.0" type="qcurve" smooth="yes"/>
      <point x="351.0" y="-20.0"/>
      <point x="85.0" y="265.0"/>
      <point x="85.0" y="468.0" type="qcurve" smooth="yes"/>
      <point x="85.0" y="698.0"/>
      <point x="340.0" y="978.0"/>
      <point x="533.0" y="978.0" type="qcurve" smooth="yes"/>
      <point x="702.0" y="978.0"/>
      <point x="933.0" y="748.0"/>
      <point x="933.0" y="613.0" type="qcurve"/>
      <point x="864.0" y="614.0" type="line"/>
      <point x="855.9464285714286" y="674.5"/>
      <point x="708.2142857142857" y="806.3571428571429"/>
      <point x="577.0" y="806.3571428571429" type="qcurve" smooth="yes"/>
      <point x="431.0" y="806.3571428571429"/>
      <point x="271.0" y="624.5357142857143"/>
      <point x="271.0" y="468.0" type="qcurve" smooth="yes"/>
      <point x="271.0" y="345.0"/>
      <point x="424.0" y="151.64285714285714"/>
      <point x="565.0" y="151.64285714285714" type="qcurve" smooth="yes"/>
      <point x="693.0" y="151.64285714285714"/>
      <point x="843.0" y="363.0"/>
      <point x="843.0" y="535.0" type="qcurve" smooth="yes"/>
      <point x="843.0" y="635.0" type="line" smooth="yes"/>
      <point x="843.0" y="984.0"/>
      <point x="464.07142857142856" y="1344.5892857142858"/>
    </contour>
    <contour>
      <point x="941.9107142857143" y="1420.125" type="line"/>
      <point x="404.9107142857143" y="1054.125" type="line"/>
      <point x="311.30357142857144" y="1187.6785714285713" type="line"/>
      <point x="848.3035714285714" y="1552.6785714285713" type="line"/>
    </contour>
  </outline>
</glyph>
<glyph name="ogonek" format="2">
  <advance width="1024"/>
  <unicode hex="02DB"/>
  <outline>
    <contour>
      <point x="533.0" y="57.0" type="qcurve"/>
      <point x="607.0" y="0.0" type="line"/>
      <point x="543.0" y="-47.80357142857143"/>
      <point x="436.0" y="-154.64285714285714"/>
      <point x="436.0" y="-213.16071428571428" type="qcurve" smooth="yes"/>
      <point x="436.0" y="-244.78571428571428"/>
      <point x="471.0" y="-283.2142857142857"/>
      <point x="514.0" y="-283.2142857142857" type="qcurve" smooth="yes"/>
      <point x="547.0" y="-283.2142857142857"/>
      <point x="599.0" y="-265.0"/>
      <point x="614.0" y="-257.19642857142856" type="qcurve"/>
      <point x="628.0" y="-390.0" type="line"/>
      <point x="603.0" y="-405.0"/>
      <point x="526.0" y="-434.0"/>
      <point x="467.0" y="-434.0" type="qcurve" smooth="yes"/>
      <point x="386.0" y="-434.0"/>
      <point x="275.0" y="-336.0"/>
      <point x="275.0" y="-243.0" type="qcurve" smooth="yes"/>
      <point x="275.0" y="-163.0"/>
      <point x="397.0" y="-6.0"/>
    </contour>
  </outline>
</glyph>
<glyph name="hookabovecomb" format="2">
  <advance width="1024"/>
  <unicode hex="0309"/>
  <outline>
    <contour>
      <point x="454.0" y="1147.0" type="line"/>
      <point x="453.60714285714283" y="1189.9285714285716" type="line" smooth="yes"/>
      <point x="453.2142857142857" y="1241.9285714285713"/>
      <point x="513.0" y="1311.9285714285713"/>
      <point x="589.0" y="1322.9285714285713" type="qcurve" smooth="yes"/>
      <point x="645.0" y="1330.9285714285713"/>
      <point x="685.0" y="1359.0"/>
      <point x="685.0" y="1396.267857142857" type="qcurve" smooth="yes"/>
      <point x="685.0" y="1431.142857142857"/>
      <point x="626.0" y="1465.1785714285713"/>
      <point x="572.0" y="1465.1785714285713" type="qcurve" smooth="yes"/>
      <point x="508.0" y="1465.1785714285713"/>
      <point x="396.5892857142857" y="1435.7142857142858"/>
      <point x="386.0" y="1428.107142857143" type="qcurve"/>
      <point x="332.0" y="1559.0" type="line"/>
      <point x="367.0" y="1578.0"/>
      <point x="521.0" y="1619.0"/>
      <point x="603.0" y="1619.0" type="qcurve" smooth="yes"/>
      <point x="723.0" y="1619.0"/>
      <point x="848.0" y="1505.0"/>
      <point x="848.0" y="1409.0" type="qcurve" smooth="yes"/>
      <point x="848.0" y="1308.0"/>
      <point x="720.0" y="1185.0714285714284"/>
      <point x="577.0" y="1174.0714285714284" type="qcurve"/>
      <point x="577.0" y="1147.0" type="line"/>
    </contour>
  </outline>
</glyph>
<glyph name="breveinvertedcomb" format="2">
  <advance width="1024"/>
  <unicode hex="030F"/>
  <outline>
    <contour>
      <point x="277.69642857142856" y="1195.642857142857" type="qcurve"/>
      <point x="170.71428571428572" y="1255.3392857142858" type="line"/>
      <point x="207.48214285714286" y="1355.3214285714287"/>
      <point x="387.0" y="1518.0"/>
      <point x="513.0" y="1518.0" type="qcurve" smooth="yes"/>
      <point x="626.0" y="1518.0"/>
      <point x="811.7142857142857" y="1367.75"/>
      <point x="854.5" y="1253.75" type="qcurve"/>
      <point x="740.4821428571429" y="1195.0535714285716" type="line"/>
      <point x="705.4821428571429" y="1253.0357142857142"/>
      <point x="591.0" y="1354.0"/>
      <point x="512.0" y="1354.0" type="qcurve" smooth="yes"/>
      <point x="428.0" y="1354.0"/>
      <point x="313.10714285714283" y="1256.8392857142858"/>
    </contour>
  </outline>
</glyph>
<glyph name="horncomb" format="2">
  <advance width="1024"/>
  <unicode hex="031B"/>
  <outline>
    <contour>
      <point x="0.0" y="998.0" type="line"/>
      <point x="84.0" y="1001.9285714285714" type="line" smooth="yes"/>
      <point x="131.80357142857142" y="1004.0892857142857"/>
      <point x="204.0" y="1037.892857142857"/>
      <point x="204.0" y="1089.892857142857" type="qcurve" smooth="yes"/>
      <point x="204.0" y="1133.142857142857"/>
      <point x="191.19642857142858" y="1203.1964285714287"/>
      <point x="181.0" y="1239.0" type="qcurve"/>
      <point x="327.0" y="1239.0" type="line"/>
      <point x="347.0" y="1206.0"/>
      <point x="380.0" y="1103.0"/>
      <point x="380.0" y="1039.0" type="qcurve" smooth="yes"/>
      <point x="380.0" y="951.0"/>
      <point x="240.0" y="860.1071428571429"/>
      <point x="144.0" y="860.1071428571429" type="qcurve" smooth="yes"/>
      <point x="98.0" y="860.1071428571429"/>
      <point x="26.0" y="874.0714285714286"/>
      <point x="0.0" y="887.0" type="qcurve"/>
    </contour>
  </outline>
</glyph>
<glyph name="brevebelowcomb" format="2">
  <advance width="1024"/>
  <unicode hex="032E"/>
  <outline>
    <contour>
      <point x="796.5178571428571" y="-123.26785714285714" type="qcurve"/>
      <point x="899.5357142857143" y="-201.32142857142858" type="line"/>
      <point x="860.1428571428571" y="-300.32142857142856"/>
      <point x="656.0" y="-463.0"/>
      <point x="512.0" y="-463.0" type="qcurve" smooth="yes"/>
      <point x="384.0" y="-463.0"/>
      <point x="173.26785714285714" y="-313.5357142857143"/>
      <point x="124.08928571428572" y="-200.51785714285714" type="qcurve"/>
      <point x="234.69642857142856" y="-123.85714285714286" type="line"/>
      <point x="277.69642857142856" y="-186.85714285714286"/>
      <point x="422.89285714285717" y="-294.0"/>
      <point x="512.0" y="-294.0" type="qcurve" smooth="yes"/>
      <point x="605.5535714285714" y="-294.0"/>
      <point x="753.5178571428571" y="-192.64285714285714"/>
    </contour>
  </outline>
</glyph>
<glyph name="emdash" format="2">
  <advance width="2048"/>
  <unicode hex="2014"/>
  <outline>
    <contour>
      <point x="260.0" y="522.1785714285714" type="line"/>
      <point x="260.0" y="709.8214285714286" type="line"/>
      <point x="1788.0" y="709.8214285714286" type="line"/>
      <point x="1788.0" y="522.1785714285714" type="line"/>
    </contour>
  </outline>
</glyph>
<glyph name="quoteleft" format="2">
  <advance width="410"/>
  <unicode hex="2018"/>
  <outline>
    <contour>
      <point x="92.0" y="1073.0" type="line"/>
      <point x="92.0" y="1194.0" type="line" smooth="yes"/>
      <point x="92.0" y="1284.0"/>
      <point x="183.0" y="1488.0"/>
      <point x="266.0" y="1556.0" type="qcurve"/>
      <point x="380.23214285714283" y="1476.125" type="line"/>
      <point x="332.85714285714283" y="1411.6964285714287"/>
      <point x="275.0" y="1268.1785714285713"/>
      <point x="275.0" y="1187.1785714285713" type="qcurve" smooth="yes"/>
      <point x="275.0" y="1073.0" type="line"/>
    </contour>
  </outline>
</glyph>
<glyph name="quotesinglbase" format="2">
  <advance width="410"/>
  <unicode hex="201A"/>
  <outline>
    <contour>
      <point x="318.0" y="220.0" type="line"/>
      <point x="318.0" y="92.0" type="line" smooth="yes"/>
      <point x="318.0" y="2.0"/>
      <point x="227.0" y="-202.0"/>
      <point x="145.0" y="-270.0" type="qcurve"/>
      <point x="32.517857142857146" y="-191.89285714285714" type="line"/>
      <point x="79.91071428571429" y="-129.03571428571428"/>
      <point x="134.0" y="8.0"/>
      <point x="134.0" y="89.0" type="qcurve" smooth="yes"/>
      <point x="134.0" y="220.0" type="line"/>
    </contour>
  </outline>
</glyph>
<glyph name="quotedblleft" format="2">
  <advance width="830"/>
  <unicode hex="201C"/>
  <outline>
    <contour>
      <point x="92.0" y="1073.0" type="line"/>
      <point x="92.0" y="1194.0" type="line" smooth="yes"/>
      <point x="92.0" y="1284.0"/>
      <point x="183.0" y="1488.0"/>
      <point x="266.0" y="1556.0" type="qcurve"/>
      <point x="376.89285714285717" y="1478.2857142857142" type="line"/>
      <point x="328.14285714285717" y="1414.8392857142858"/>
      <point x="275.0" y="1278.0"/>
      <point x="275.0" y="1197.0" type="qcurve" smooth="yes"/>
      <point x="275.0" y="1073.0" type="line"/>
    </contour>
    <contour>
      <point x="512.0" y="1073.0" type="line"/>
      <point x="512.0" y="1194.0" type="line" smooth="yes"/>
      <point x="512.0" y="1284.0"/>
      <point x="603.0" y="1488.0"/>
      <point x="686.0" y="1556.0" type="qcurve"/>
      <point x="796.8928571428571" y="1478.2857142857142" type="line"/>
      <point x="748.7321428571429" y="1414.642857142857"/>
      <point x="695.0" y="1278.0"/>
      <point x="695.0" y="1197.0" type="qcurve" smooth="yes"/>
      <point x="695.0" y="1073.0" type="line"/>
    </contour>
  </outline>
</glyph>
<glyph name="quotedblright" format="2">
  <advance width="830"/>
  <unicode hex="201D"/>
  <outline>
    <contour>
      <point x="318.0" y="1458.0" type="line"/>
      <point x="318.0" y="1330.0" type="line" smooth="yes"/>
      <point x="318.0" y="1240.0"/>
      <point x="227.0" y="1036.0"/>
      <point x="145.0" y="968.0" type="qcurve"/>
      <point x="32.910714285714285" y="1046.3035714285713" type="line"/>
      <point x="81.08928571428571" y="1110.9285714285713"/>
      <point x="134.0" y="1246.0"/>
      <point x="134.0" y="1327.0" type="qcurve" smooth="yes"/>
      <point x="134.0" y="1458.0" type="line"/>
    </contour>
    <contour>
      <point x="738.0" y="1458.0" type="line"/>
      <point x="738.0" y="1330.0" type="line" smooth="yes"/>
      <point x="738.0" y="1240.0"/>
      <point x="647.0" y="1036.0"/>
      <point x="565.0" y="968.0" type="qcurve"/>
      <point x="453.10714285714283" y="1046.3035714285713" type="line"/>
      <point x="500.5" y="1109.9464285714287"/>
      <point x="554.0" y="1246.0"/>
      <point x="554.0" y="1327.0" type="qcurve" smooth="yes"/>
      <point x="554.0" y="1458.0" type="line"/>
    </contour>
  </outline>
</glyph>
<glyph name="quotedblbase" format="2">
  <advance width="830"/>
  <unicode hex="201E"/>
  <outline>
    <contour>
      <point x="318.0" y="220.0" type="line"/>
      <point x="318.0" y="92.0" type="line" smooth="yes"/>
      <point x="318.0" y="2.0"/>
      <point x="227.0" y="-202.0"/>
      <point x="145.0" y="-270.0" type="qcurve"/>
      <point x="32.714285714285715" y="-191.89285714285714" type="line"/>
      <point x="82.07142857142857" y="-127.66071428571429"/>
      <point x="134.0" y="8.0"/>
      <point x="134.0" y="89.0" type="qcurve" smooth="yes"/>
      <point x="134.0" y="220.0" type="line"/>
    </contour>
    <contour>
      <point x="738.0" y="220.0" type="line"/>
      <point x="738.0" y="92.0" type="line" smooth="yes"/>
      <point x="738.0" y="2.0"/>
      <point x="647.0" y="-202.0"/>
      <point x="565.0" y="-270.0" type="qcurve"/>
      <point x="452.7142857142857" y="-191.89285714285714" type="line"/>
      <point x="502.07142857142856" y="-127.66071428571429"/>
      <point x="554.0" y="8.0"/>
      <point x="554.0" y="89.0" type="qcurve" smooth="yes"/>
      <point x="554.0" y="220.0" type="line"/>
    </contour>
  </outline>
</glyph>
<glyph name="daggerdbl" format="2">
  <advance width="1008"/>
  <unicode hex="2021"/>
  <outline>
    <contour>
      <point x="77.0" y="28.17857142857143" type="line"/>
      <point x="77.0" y="213.82142857142858" type="line"/>
      <point x="428.0" y="213.82142857142858" type="line"/>
      <point x="408.0" y="534.0" type="line"/>
      <point x="423.0" y="845.1785714285714" type="line"/>
      <point x="77.0" y="845.1785714285714" type="line"/>
      <point x="77.0" y="1031.8214285714287" type="line"/>
      <point x="409.0" y="1031.8214285714287" type="line"/>
      <point x="406.0" y="1508.0" type="line"/>
      <point x="597.0" y="1508.0" type="line"/>
      <point x="594.0" y="1031.8214285714287" type="line"/>
      <point x="926.0" y="1031.8214285714287" type="line"/>
      <point x="926.0" y="845.1785714285714" type="line"/>
      <point x="580.0" y="845.1785714285714" type="line"/>
      <point x="595.0" y="534.0" type="line"/>
      <point x="575.0" y="213.82142857142858" type="line"/>
      <point x="926.0" y="213.82142857142858" type="line"/>
      <point x="926.0" y="28.17857142857143" type="line"/>
      <point x="589.0" y="28.17857142857143" type="line"/>
      <point x="592.0" y="-452.0" type="line"/>
      <point x="411.0" y="-452.0" type="line"/>
      <point x="414.0" y="28.17857142857143" type="line"/>
    </contour>
  </outline>
</glyph>
<glyph name="fraction" format="2">
  <advance width="342"/>
  <unicode hex="2044"/>
  <guideline x="0" y="901.0" angle="0" identifier="tcCoNUQTdD"/>
  <guideline x="0" y="555.0" angle="0" identifier="0lx51aIE0d"/>
  <outline>
    <contour>
      <point x="594.0" y="1345.0" type="line"/>
      <point x="40.0" y="-18.0" type="line"/>
      <point x="-226.0" y="115.0" type="line"/>
      <point x="321.0" y="1474.0" type="line"/>
    </contour>
  </outline>
</glyph>
<glyph name="naira" format="2">
  <advance width="1024"/>
  <unicode hex="20A6"/>
  <outline>
    <contour>
      <point x="-21.0" y="838.2142857142857" type="line"/>
      <point x="-21.0" y="994.8571428571429" type="line"/>
      <point x="161.0" y="994.8571428571429" type="line"/>
      <point x="161.0" y="984.8571428571429" type="line"/>
      <point x="827.0" y="984.8571428571429" type="line"/>
      <point x="827.0" y="994.8571428571429" type="line"/>
      <point x="1019.0" y="996.8571428571429" type="line"/>
      <point x="1019.0" y="840.2142857142857" type="line"/>
      <point x="827.0" y="838.2142857142857" type="line"/>
      <point x="827.0" y="843.2142857142857" type="line"/>
      <point x="161.0" y="843.2142857142857" type="line"/>
      <point x="161.0" y="838.2142857142857" type="line"/>
    </contour>
    <contour>
      <point x="-21.0" y="520.3571428571429" type="line"/>
      <point x="-21.0" y="677.0" type="line"/>
      <point x="161.0" y="677.0" type="line"/>
      <point x="161.0" y="672.0" type="line"/>
      <point x="827.0" y="672.0" type="line"/>
      <point x="827.0" y="677.0" type="line"/>
      <point x="1019.0" y="679.0" type="line"/>
      <point x="1019.0" y="522.3571428571429" type="line"/>
      <point x="827.0" y="520.3571428571429" type="line"/>
      <point x="827.0" y="530.3571428571429" type="line"/>
      <point x="161.0" y="530.3571428571429" type="line"/>
      <point x="161.0" y="520.3571428571429" type="line"/>
    </contour>
    <contour>
      <point x="913.8571428571429" y="1456.0" type="line"/>
      <point x="913.8571428571429" y="0.0" type="line"/>
      <point x="725.0" y="0.0" type="line"/>
      <point x="268.5357142857143" y="1105.267857142857" type="line"/>
      <point x="246.53571428571428" y="1216.267857142857" type="line"/>
      <point x="234.53571428571428" y="1216.267857142857" type="line"/>
      <point x="246.75" y="1090.4285714285713" type="line"/>
      <point x="246.75" y="0.0" type="line"/>
      <point x="77.10714285714286" y="0.0" type="line"/>
      <point x="77.10714285714286" y="1456.0" type="line"/>
      <point x="269.0" y="1456.0" type="line"/>
      <point x="712.9821428571429" y="373.32142857142856" type="line"/>
      <point x="741.9821428571429" y="253.32142857142856" type="line"/>
      <point x="755.9821428571429" y="256.32142857142856" type="line"/>
      <point x="744.2142857142857" y="377.125" type="line"/>
      <point x="744.2142857142857" y="1456.0" type="line"/>
    </contour>
  </outline>
</glyph>
<glyph name="peseta" format="2">
  <advance width="1681"/>
  <unicode hex="20A7"/>
  <outline>
    <contour>
      <point x="545.0" y="555.1785714285714" type="qcurve"/>
      <point x="311.0" y="555.1785714285714" type="line"/>
      <point x="311.0" y="726.8214285714286" type="line"/>
      <point x="545.0" y="726.8214285714286" type="line"/>
      <point x="713.3936567164179" y="726.8214285714286"/>
      <point x="822.0" y="895.4973347547975"/>
      <point x="822.0" y="1003.1071428571429" type="qcurve"/>
      <point x="822.0" y="1115.0591684434967"/>
      <point x="718.1079424307036" y="1284.357142857143"/>
      <point x="545.0" y="1284.357142857143" type="qcurve"/>
      <point x="352.0" y="1284.357142857143" type="line"/>
      <point x="352.0" y="0.0" type="line"/>
      <point x="167.0" y="0.0" type="line"/>
      <point x="167.0" y="1456.0" type="line"/>
      <point x="545.0" y="1456.0" type="line"/>
      <point x="791.2686567164179" y="1456.0"/>
      <point x="1008.0" y="1202.044776119403"/>
      <point x="1008.0" y="1011.0" type="qcurve"/>
      <point x="1008.0" y="819.2089552238806"/>
      <point x="791.2158848614073" y="555.1785714285714"/>
    </contour>
    <contour>
      <point x="1554.0" y="1026.0" type="line"/>
      <point x="1554.0" y="864.3571428571429" type="line"/>
      <point x="950.0" y="864.3571428571429" type="line"/>
      <point x="950.0" y="1026.0" type="line"/>
    </contour>
    <contour>
      <point x="1147.0" y="1345.0" type="line"/>
      <point x="1332.0" y="1345.0" type="line"/>
      <point x="1332.0" y="287.64285714285717" type="line"/>
      <point x="1332.0" y="204.7747867803838"/>
      <point x="1404.7841151385928" y="158.64285714285714"/>
      <point x="1451.0" y="158.64285714285714" type="qcurve" smooth="yes"/>
      <point x="1474.1079424307036" y="158.64285714285714"/>
      <point x="1544.0" y="160.64285714285714"/>
      <point x="1603.0" y="182.64285714285714" type="qcurve"/>
      <point x="1603.0" y="12.0" type="line"/>
      <point x="1554.0" y="-6.0"/>
      <point x="1445.5074626865671" y="-20.0"/>
      <point x="1397.0" y="-20.0" type="qcurve" smooth="yes"/>
      <point x="1294.7611940298507" y="-20.0"/>
      <point x="1147.0" y="107.05970149253733"/>
      <point x="1147.0" y="269.0" type="qcurve"/>
    </contour>
  </outline>
</glyph>
<glyph name="numero" format="2">
  <advance width="2331"/>
  <unicode hex="2116"/>
  <outline>
    <contour>
      <point x="166.07142857142858" y="0.0" type="line"/>
      <point x="166.07142857142858" y="1456.0" type="line"/>
      <point x="365.0" y="1456.0" type="line"/>
      <point x="967.0" y="416.0" type="line" smooth="yes"/>
      <point x="985.0" y="386.0"/>
      <point x="1013.9285714285714" y="337.5892857142857"/>
      <point x="1024.9464285714287" y="315.3392857142857" type="qcurve"/>
      <point x="1034.357142857143" y="315.3392857142857" type="line"/>
      <point x="1030.75" y="341.80357142857144"/>
      <point x="1029.142857142857" y="408.1607142857143"/>
      <point x="1029.142857142857" y="436.0" type="qcurve" smooth="yes"/>
      <point x="1029.142857142857" y="1456.0" type="line"/>
      <point x="1217.9285714285713" y="1456.0" type="line"/>
      <point x="1217.9285714285713" y="0.0" type="line"/>
      <point x="1017.0" y="0.0" type="line"/>
      <point x="407.0" y="1028.0" type="line" smooth="yes"/>
      <point x="391.5357142857143" y="1053.3035714285713"/>
      <point x="369.26785714285717" y="1103.4642857142858"/>
      <point x="362.85714285714283" y="1126.9285714285713" type="qcurve"/>
      <point x="353.05357142857144" y="1126.9285714285713" type="line"/>
      <point x="356.6607142857143" y="1100.0714285714287"/>
      <point x="357.85714285714283" y="1036.0714285714287"/>
      <point x="357.85714285714283" y="1010.0" type="qcurve" smooth="yes"/>
      <point x="357.85714285714283" y="0.0" type="line"/>
    </contour>
    <contour>
      <point x="1353.0" y="992.0" type="qcurve" smooth="yes"/>
      <point x="1353.0" y="1019.0" type="line" smooth="yes"/>
      <point x="1353.0" y="1219.0"/>
      <point x="1593.0" y="1473.0"/>
      <point x="1789.0" y="1473.0" type="qcurve" smooth="yes"/>
      <point x="1985.0" y="1473.0"/>
      <point x="2226.0" y="1219.0"/>
      <point x="2226.0" y="1019.0" type="qcurve" smooth="yes"/>
      <point x="2226.0" y="992.0" type="line" smooth="yes"/>
      <point x="2226.0" y="792.0"/>
      <point x="1997.0" y="539.0"/>
      <point x="1789.0" y="539.0" type="qcurve" smooth="yes"/>
      <point x="1581.0" y="539.0"/>
      <point x="1353.0" y="792.0"/>
    </contour>
    <contour>
      <point x="1551.0" y="1016.0" type="qcurve" smooth="yes"/>
      <point x="1551.0" y="991.0" type="line" smooth="yes"/>
      <point x="1551.0" y="877.75"/>
      <point x="1664.0714285714287" y="718.6428571428571"/>
      <point x="1789.0" y="718.6428571428571" type="qcurve" smooth="yes"/>
      <point x="1913.9285714285713" y="718.6428571428571"/>
      <point x="2028.0" y="877.75"/>
      <point x="2028.0" y="991.0" type="qcurve" smooth="yes"/>
      <point x="2028.0" y="1016.0" type="line" smooth="yes"/>
      <point x="2028.0" y="1129.25"/>
      <point x="1912.142857142857" y="1288.357142857143"/>
      <point x="1789.0" y="1288.357142857143" type="qcurve" smooth="yes"/>
      <point x="1665.857142857143" y="1288.357142857143"/>
      <point x="1551.0" y="1129.25"/>
    </contour>
    <contour>
      <point x="1393.0" y="222.17857142857142" type="line"/>
      <point x="1393.0" y="423.82142857142856" type="line"/>
      <point x="2186.0" y="423.82142857142856" type="line"/>
      <point x="2186.0" y="222.17857142857142" type="line"/>
    </contour>
  </outline>
</glyph>
<glyph name="approxequal" format="2">
  <advance width="1024"/>
  <unicode hex="2248"/>
  <outline>
    <contour>
      <point x="46.0" y="694.1785714285714" type="qcurve"/>
      <point x="46.0" y="910.8214285714286" type="line"/>
      <point x="93.0" y="961.8214285714286"/>
      <point x="225.0" y="1019.8214285714286"/>
      <point x="290.0" y="1020.8214285714286" type="qcurve" smooth="yes"/>
      <point x="369.0" y="1021.8214285714286"/>
      <point x="461.0" y="978.8214285714286"/>
      <point x="524.0" y="947.8214285714286" type="qcurve" smooth="yes"/>
      <point x="583.0" y="917.8214285714286"/>
      <point x="668.0" y="877.8214285714286"/>
      <point x="742.0" y="877.8214285714286" type="qcurve" smooth="yes"/>
      <point x="807.0" y="877.8214285714286"/>
      <point x="932.0" y="945.8214285714286"/>
      <point x="979.0" y="1005.8214285714286" type="qcurve"/>
      <point x="979.0" y="789.1785714285714" type="line"/>
      <point x="932.0" y="738.1785714285714"/>
      <point x="808.0" y="680.1785714285714"/>
      <point x="743.0" y="680.1785714285714" type="qcurve" smooth="yes"/>
      <point x="669.0" y="680.1785714285714"/>
      <point x="584.0" y="719.1785714285714"/>
      <point x="525.0" y="749.1785714285714" type="qcurve" smooth="yes"/>
      <point x="462.0" y="780.1785714285714"/>
      <point x="369.0" y="822.1785714285714"/>
      <point x="290.0" y="822.1785714285714" type="qcurve" smooth="yes"/>
      <point x="225.0" y="822.1785714285714"/>
      <point x="93.0" y="754.1785714285714"/>
    </contour>
    <contour>
      <point x="45.0" y="277.17857142857144" type="qcurve"/>
      <point x="45.0" y="493.82142857142856" type="line"/>
      <point x="92.0" y="544.8214285714286"/>
      <point x="224.0" y="601.8214285714286"/>
      <point x="289.0" y="602.8214285714286" type="qcurve" smooth="yes"/>
      <point x="368.0" y="603.8214285714286"/>
      <point x="460.0" y="560.8214285714286"/>
      <point x="523.0" y="529.8214285714286" type="qcurve" smooth="yes"/>
      <point x="582.0" y="499.82142857142856"/>
      <point x="667.0" y="460.82142857142856"/>
      <point x="741.0" y="460.82142857142856" type="qcurve" smooth="yes"/>
      <point x="806.0" y="460.82142857142856"/>
      <point x="931.0" y="528.8214285714286"/>
      <point x="978.0" y="588.8214285714286" type="qcurve"/>
      <point x="978.0" y="371.17857142857144" type="line"/>
      <point x="931.0" y="320.17857142857144"/>
      <point x="807.0" y="262.17857142857144"/>
      <point x="742.0" y="262.17857142857144" type="qcurve" smooth="yes"/>
      <point x="668.0" y="262.17857142857144"/>
      <point x="583.0" y="301.17857142857144"/>
      <point x="524.0" y="331.17857142857144" type="qcurve" smooth="yes"/>
      <point x="461.0" y="362.17857142857144"/>
      <point x="368.0" y="404.17857142857144"/>
      <point x="289.0" y="404.17857142857144" type="qcurve" smooth="yes"/>
      <point x="224.0" y="404.17857142857144"/>
      <point x="92.0" y="337.17857142857144"/>
    </contour>
  </outline>
</glyph>
<glyph name="leftanglebracket" format="2">
  <advance width="700"/>
  <unicode hex="27E8"/>
  <outline>
    <contour>
      <point x="-16.0" y="536.0" type="line"/>
      <point x="-16.0" y="665.0" type="line"/>
      <point x="579.3214285714286" y="1502.9285714285713" type="line"/>
      <point x="700.375" y="1412.2142857142858" type="line"/>
      <point x="175.0" y="604.0" type="line"/>
      <point x="700.1607142857143" y="-217.42857142857142" type="line"/>
      <point x="579.7142857142857" y="-307.5357142857143" type="line"/>
    </contour>
  </outline>
</glyph>
<glyph name="rightanglebracket" format="2">
  <advance width="700"/>
  <unicode hex="27E9"/>
  <outline>
    <contour>
      <point x="-15.017857142857142" y="-216.625" type="line"/>
      <point x="508.0" y="591.0" type="line"/>
      <point x="-14.607142857142858" y="1412.232142857143" type="line"/>
      <point x="107.41071428571428" y="1503.3214285714287" type="line"/>
      <point x="699.0" y="659.0" type="line"/>
      <point x="699.0" y="530.0" type="line"/>
      <point x="105.64285714285714" y="-308.125" type="line"/>
    </contour>
  </outline>
</glyph>
<glyph name="diagonalbarL" format="2">
  <advance width="741"/>
  <outline>
    <contour>
      <point x="86.08928571428572" y="433.625" type="line"/>
      <point x="-5.696428571428569" y="594.2142857142857" type="line"/>
      <point x="658.3035714285714" y="1005.2142857142857" type="line"/>
      <point x="751.0892857142857" y="847.625" type="line"/>
    </contour>
  </outline>
</glyph>
<glyph name="horizontalbarH" format="2">
  <advance width="1458"/>
  <outline>
    <contour>
      <point x="1442.0" y="1017.1785714285713" type="line"/>
      <point x="1220.0" y="1015.1785714285713" type="line"/>
      <point x="1220.0" y="1171.8214285714287" type="line"/>
      <point x="1452.0" y="1173.8214285714287" type="line"/>
    </contour>
    <contour>
      <point x="15.0" y="1015.1785714285713" type="line"/>
      <point x="6.0" y="1171.8214285714287" type="line"/>
      <point x="245.0" y="1171.8214285714287" type="line"/>
      <point x="245.0" y="1015.1785714285713" type="line"/>
    </contour>
    <contour>
      <point x="245.0" y="1025.1785714285713" type="line"/>
      <point x="245.0" y="1161.8214285714287" type="line"/>
      <point x="1220.0" y="1161.8214285714287" type="line"/>
      <point x="1220.0" y="1025.1785714285713" type="line"/>
    </contour>
  </outline>
</glyph>
<glyph name="horizontalbarlc" format="2">
  <advance width="636"/>
  <outline>
    <contour>
      <point x="311.0" y="642.25" type="line"/>
      <point x="29.0" y="642.25" type="line"/>
      <point x="40.0" y="807.8928571428571" type="line"/>
      <point x="351.0" y="807.8928571428571" type="line"/>
      <point x="636.0" y="807.8928571428571" type="line"/>
      <point x="636.0" y="642.25" type="line"/>
    </contour>
  </outline>
</glyph>
<glyph name="zerosuperior" format="2">
  <advance width="580"/>
  <outline>
    <contour>
      <point x="15.0" y="928.0" type="qcurve" smooth="yes"/>
      <point x="15.0" y="1266.0" type="line" smooth="yes"/>
      <point x="15.0" y="1375.0"/>
      <point x="181.0" y="1496.0"/>
      <point x="291.0" y="1496.0" type="qcurve" smooth="yes"/>
      <point x="400.0" y="1496.0"/>
      <point x="565.0" y="1375.0"/>
      <point x="565.0" y="1266.0" type="qcurve" smooth="yes"/>
      <point x="565.0" y="928.0" type="line" smooth="yes"/>
      <point x="565.0" y="803.0"/>
      <point x="400.0" y="675.0"/>
      <point x="291.0" y="675.0" type="qcurve" smooth="yes"/>
      <point x="181.0" y="675.0"/>
      <point x="15.0" y="803.0"/>
    </contour>
    <contour>
      <point x="261.0" y="914.9285714285714" type="line" smooth="yes"/>
      <point x="261.0" y="885.7678571428571"/>
      <point x="275.80357142857144" y="879.7321428571429"/>
      <point x="290.80357142857144" y="879.7321428571429" type="qcurve" smooth="yes"/>
      <point x="303.80357142857144" y="879.7321428571429"/>
      <point x="319.0" y="884.0"/>
      <point x="319.0" y="914.9285714285714" type="qcurve" smooth="yes"/>
      <point x="319.0" y="1256.0357142857142" type="line" smooth="yes"/>
      <point x="319.0" y="1285.5892857142858"/>
      <point x="302.44642857142856" y="1292.267857142857"/>
      <point x="291.0" y="1292.267857142857" type="qcurve" smooth="yes"/>
      <point x="279.3392857142857" y="1292.267857142857"/>
      <point x="261.0" y="1285.0"/>
      <point x="261.0" y="1256.0357142857142" type="qcurve" smooth="yes"/>
    </contour>
  </outline>
</glyph>
